{
.appVersion = "3151";
.formatVersion = 3;
DisplayStrings = (
"ÁÁĂĂÂÂÄÄÀÀĀĀĄĄÅÅǺǺÃÃǼǼĆĆČČÇÇĈĈĊĊÐÐĎĎĐĐÉÉĔĔĚĚÊÊËËĖĖÈÈĒĒĘĘĞĞĜĜĠĠĦĦĤĤÍÍĬĬÎÎÏÏİİÌÌĪĪĮĮĨĨĴĴĹĹĽĽŃŃŇŇÑÑÓÓŎŎÔÔÖÖÒÒŐŐŌŌØØǾǾÕÕŔŔŘŘŚŚŠŠŞŞŜŜŦŦŤŤÚÚŬŬÛÛÜÜÙÙŰŰŪŪŲŲŮŮŨŨẂẂŴŴẄẄẀẀÝÝŶŶŸŸỲỲŹŹŽŽŻŻŢŢááăăââääààāāąąååǻǻããǽǽććččççĉĉċċďďđđééĕĕěěêêëëėėèèēēęęğğĝĝġġħħĥĥííĭĭîîïïììīīįįĩĩĵĵĺĺľľńńŉŉňňññóóŏŏôôööòòőőōōǿǿõõŕŕřřśśššşşŝŝßßŧŧťťúúŭŭûûüüùùűűūūţţųųůůũũẃẃŵŵẅẅẁẁýýŷŷÿÿỳỳźźžžżżﬁﬁﬂﬂ⁽⁾"
);
customParameters = (
{
name = descriptions;
value = "";
},
{
name = licenses;
value = "This Font Software is licensed under the SIL Open Font License, Version 1.1. This license is available with a FAQ at: http://scripts.sil.org/OFL";
},
{
name = licenseURL;
value = "http://scripts.sil.org/OFL";
},
{
name = sampleTexts;
value = "";
},
{
name = uniqueID;
value = "EduardoRodriguezTunni: Mate SC Regular: 2011";
},
{
name = versionString;
value = "Version 2.001";
},
{
name = codePageRanges;
value = (
"1252",
"1250",
"1254",
"1257",
"bit 29"
);
},
{
name = openTypeOS2FamilyClass;
value = (
0,
0
);
},
{
name = panose;
value = (
2,
0,
0,
0,
0,
0,
0,
0,
0,
0
);
},
{
name = openTypeOS2SubscriptXOffset;
value = 0;
},
{
name = openTypeOS2SubscriptXSize;
value = 700;
},
{
name = openTypeOS2SubscriptYOffset;
value = 140;
},
{
name = openTypeOS2SubscriptYSize;
value = 650;
},
{
name = openTypeOS2SuperscriptXOffset;
value = 0;
},
{
name = openTypeOS2SuperscriptXSize;
value = 700;
},
{
name = openTypeOS2SuperscriptYOffset;
value = 477;
},
{
name = openTypeOS2SuperscriptYSize;
value = 650;
},
{
name = unicodeRanges;
value = (
0,
1,
2,
3,
5,
7,
29,
31,
32,
33,
35,
36,
38,
45,
62
);
},
{
name = vendorID;
value = TIPO;
},
{
name = trademarks;
value = "Mate is a trademark of Eduardo Rodriguez Tunni.";
},
{
name = year;
value = 2011;
}
);
date = "2023-02-22 16:13:45 +0000";
familyName = "Mate SC";
featurePrefixes = (
{
code = "languagesystem DFLT dflt;
languagesystem latn dflt; # Latin default
";
name = Languagesystems;
},
{
code = "#
# Feature definitions
#

###

glyphs = (
{
glyphname = A;
layers = (
{
layerId = master01;
shapes = (
{
closed = 1;
nodes = (
(179,215,l),
(454,229,l),
(517,52,l),
(427,30,l),
(427,22,o),
(427,0,o),
(442,0,cs),
(442,0,o),
(453,0,o),
(561,4,c),
(648,0,o),
(660,0,o),
(660,0,c),
(675,0,o),
(675,23,o),
(675,30,c),
(600,52,l),
(368,700,l),
(292,700,l),
(62,52,l),
(-13,30,l),
(-13,23,o),
(-13,0,o),
(2,0,cs),
(2,0,o),
(6,0,o),
(93,4,c),
(201,0,o),
(204,0,o),
(204,0,c),
(219,0,o),
(219,22,o),
(219,30,c),
(124,52,l,{
name = hr00;
})
);
},
{
closed = 1;
nodes = (
(439,273,l),
(199,273,l),
(317,619,l)
);
}
);
width = 660;
}
);
unicode = 65;
},
{
glyphname = AE;
layers = (
{
layerId = master01;
shapes = (
{
closed = 1;
nodes = (
(725,541,o),
(760,541,o),
(768,541,c),
(792,690,l),
(791,700,o),
(778,700,o),
(760,700,cs,{
name = hr01;
}),
(421,696,l),
(338,700,l),
(62,52,l),
(-13,30,l),
(-13,23,o),
(-13,0,o),
(2,0,cs),
(2,0,o),
(6,0,o),
(93,4,c,{
name = hr02;
}),
(201,0,o),
(204,0,o),
(204,0,c,{
name = hr03;
}),
(219,0,o),
(219,22,o),
(219,30,c),
(124,52,l),
(192,217,l),
(443,229,l),
(481,52,l),
(391,30,l),
(391,22,o),
(391,0,o),
(406,0,c),
(525,8,l),
(816,0,o),
(819,0,o),
(821,0,cs),
(835,0,o),
(841,3,o),
(842,12,cs),
(850,163,l),
(843,163,o),
(808,163,o),
(808,149,c),
(782,55,l,{
name = hr04;
}),
(561,55,l),
(502,325,l),
(772,339,l),
(772,382,l),
(490,382,l),
(432,646,l),
(725,649,l),
(725,555,ls)
);
},
{
closed = 1;
nodes = (
(434,273,l),
(215,273,l),
(359,622,l)
);
}
);
width = 865;
}
);
unicode = 198;
},
{
glyphname = B;
layers = (
{
layerId = master01;
shapes = (
{
closed = 1;
nodes = (
(511,615,o),
(439,700,o),
(298,700,cs),
(294,700,o),
(290,700,o),
(168,696,c),
(74,700,o),
(65,700,o),
(65,700,c),
(50,700,o),
(50,677,o),
(50,670,c),
(134,648,l),
(134,52,l),
(50,30,l),
(50,23,o),
(50,0,o),
(65,0,c),
(176,8,l,{
name = hr01;
}),
(353,0,o),
(356,0,o),
(360,0,cs,{
name = hr02;
}),
(490,0,o),
(567,87,o),
(567,192,cs),
(567,270,o),
(513,347,o),
(402,374,c),
(474,404,o),
(511,466,o),
(511,529,cs)
);
},
{
closed = 1;
nodes = (
(310,44,o),
(258,48,o),
(205,58,c),
(214,336,l),
(316,348,l),
(432,348,o),
(487,268,o),
(487,191,cs,{
name = hr04;
}),
(487,117,o),
(440,44,o),
(334,44,cs)
);
},
{
closed = 1;
nodes = (
(385,662,o),
(436,595,o),
(436,526,cs,{
name = hr05;
}),
(436,460,o),
(389,393,o),
(296,384,c),
(214,384,l),
(205,648,l),
(285,662,l)
);
}
);
width = 612;
}
);
unicode = 66;
},
{
glyphname = C;
layers = (
{
layerId = master01;
shapes = (
{
closed = 1;
nodes = (
(585,194,o),
(551,193,o),
(547,180,c),
(524,78,l),
(481,52,o),
(434,41,o),
(373,41,cs),
(234,41,o),
(128,143,o),
(128,352,cs),
(128,478,o),
(167,583,o),
(229,629,c),
(268,642,o),
(324,653,o),
(373,653,cs),
(421,653,o),
(481,641,o),
(514,628,c),
(514,517,ls),
(514,503,o),
(551,503,o),
(559,503,c),
(585,652,l),
(527,691,o),
(457,712,o),
(379,712,cs),
(192,712,o),
(40,588,o),
(40,354,cs),
(40,109,o),
(178,-12,o),
(363,-12,cs),
(450,-12,o),
(528,9,o),
(584,51,cs),
(592,194,l,{
name = hr00;
})
);
}
);
width = 642;
}
);
unicode = 67;
},
{
glyphname = D;
layers = (
{
layerId = master01;
shapes = (
{
closed = 1;
nodes = (
(134,52,l),
(50,30,l),
(50,23,o),
(50,0,o),
(65,0,c),
(176,8,l),
(364,-6,l,{
name = hr01;
}),
(564,-6,o),
(708,110,o),
(708,363,cs),
(708,597,o),
(561,712,o),
(380,712,c),
(176,696,l),
(82,700,o),
(65,700,o),
(65,700,c,{
name = hr02;
}),
(50,700,o),
(50,677,o),
(50,670,c),
(134,648,l)
);
},
{
closed = 1;
nodes = (
(319,41,o),
(262,49,o),
(208,61,c),
(218,350,l),
(208,639,l),
(271,654,o),
(331,658,o),
(374,658,cs,{
name = hr03;
}),
(514,658,o),
(620,557,o),
(620,352,cs),
(620,140,o),
(514,41,o),
(374,41,cs)
);
}
);
width = 748;
}
);
unicode = 68;
},
{
glyphname = E;
layers = (
{
layerId = master01;
shapes = (
{
closed = 1;
nodes = (
(473,541,o),
(508,541,o),
(516,541,c),
(540,690,l),
(539,700,o),
(526,700,o),
(508,700,cs,{
name = hr01;
}),
(168,696,l),
(74,700,o),
(65,700,o),
(65,700,c),
(50,700,o),
(50,677,o),
(50,670,c),
(134,648,l),
(134,52,l),
(50,30,l),
(50,23,o),
(50,0,o),
(65,0,c),
(170,8,l),
(514,0,ls),
(534,0,o),
(542,1,o),
(543,12,cs),
(551,163,l),
(544,163,o),
(509,163,o),
(509,149,c),
(483,55,l,{
name = hr02;
}),
(208,55,l),
(217,326,l),
(473,339,l),
(473,382,l),
(217,382,l),
(208,646,l),
(473,649,l),
(473,555,ls)
);
}
);
width = 601;
}
);
unicode = 69;
},
{
glyphname = F;
layers = (
{
layerId = master01;
shapes = (
{
closed = 1;
nodes = (
(443,541,o),
(478,541,o),
(486,541,c),
(510,690,l),
(509,700,o),
(496,700,o),
(478,700,cs,{
name = hr01;
}),
(168,696,l),
(74,700,o),
(65,700,o),
(65,700,c),
(50,700,o),
(50,677,o),
(50,670,c),
(134,648,l),
(134,52,l),
(50,30,l),
(50,23,o),
(50,0,o),
(65,0,cs),
(65,0,o),
(74,0,o),
(168,4,c),
(261,0,o),
(304,0,o),
(304,0,c),
(319,0,o),
(319,23,o),
(319,30,c),
(208,52,l),
(216,310,l),
(463,323,l),
(463,366,l),
(217,367,l),
(208,646,l),
(443,649,l),
(443,555,ls)
);
}
);
width = 550;
}
);
unicode = 70;
},
{
glyphname = G;
layers = (
{
layerId = master01;
shapes = (
{
closed = 1;
nodes = (
(596,360,l),
(334,360,l),
(334,317,l),
(519,306,l),
(536,97,l),
(492,64,o),
(423,41,o),
(363,41,cs),
(230,41,o),
(128,143,o),
(128,352,cs),
(128,478,o),
(167,583,o),
(229,629,c),
(268,642,o),
(324,653,o),
(373,653,cs),
(426,653,o),
(492,641,o),
(529,628,c),
(529,517,ls),
(529,503,o),
(566,503,o),
(574,503,c),
(600,652,l),
(538,691,o),
(463,712,o),
(379,712,cs),
(192,712,o),
(40,588,o),
(40,354,cs),
(40,109,o),
(174,-12,o),
(353,-12,cs),
(440,-12,o),
(523,13,o),
(605,72,c),
(596,111,l,{
name = hr00;
})
);
}
);
width = 665;
}
);
unicode = 71;
},
{
glyphname = H;
layers = (
{
layerId = master01;
shapes = (
{
closed = 1;
nodes = (
(739,677,o),
(739,700,o),
(724,700,cs),
(724,700,o),
(715,700,o),
(621,696,c),
(528,700,o),
(516,700,o),
(516,700,c),
(501,700,o),
(501,677,o),
(501,670,c),
(581,648,l),
(572,384,l),
(217,384,l),
(208,648,l),
(288,670,l),
(288,677,o),
(288,700,o),
(273,700,cs),
(273,700,o),
(261,700,o),
(168,696,c),
(74,700,o),
(65,700,o),
(65,700,c),
(50,700,o),
(50,677,o),
(50,670,c),
(134,648,l),
(134,52,l),
(50,30,l),
(50,23,o),
(50,0,o),
(65,0,cs),
(65,0,o),
(74,0,o),
(168,4,c),
(261,0,o),
(273,0,o),
(273,0,c),
(288,0,o),
(288,23,o),
(288,30,c),
(208,52,l),
(217,326,l),
(571,340,l),
(581,52,l),
(501,30,l),
(501,23,o),
(501,0,o),
(516,0,cs),
(516,0,o),
(528,0,o),
(621,4,c),
(715,0,o),
(724,0,o),
(724,0,c),
(739,0,o),
(739,23,o),
(739,30,c),
(655,52,l),
(655,648,l),
(739,670,l,{
name = hr00;
})
);
}
);
width = 789;
}
);
unicode = 72;
},
{
glyphname = I;
layers = (
{
layerId = master01;
shapes = (
{
closed = 1;
nodes = (
(131,350,l),
(136,52,l),
(50,30,l),
(50,23,o),
(50,0,o),
(65,0,cs),
(65,0,o),
(83,0,o),
(177,4,c),
(270,0,o),
(280,0,o),
(280,0,c),
(295,0,o),
(295,23,o),
(295,30,c),
(209,52,l),
(214,350,l),
(209,648,l),
(295,670,l),
(295,677,o),
(295,700,o),
(280,700,cs),
(280,700,o),
(270,700,o),
(177,696,c),
(83,700,o),
(65,700,o),
(65,700,c),
(50,700,o),
(50,677,o),
(50,670,c),
(136,648,l,{
name = hr00;
})
);
}
);
width = 345;
}
);
unicode = 73;
},
{
glyphname = J;
layers = (
{
layerId = master01;
shapes = (
{
closed = 1;
nodes = (
(133,39,o),
(78,-75,o),
(-4,-183,c),
(26,-204,l),
(138,-80,o),
(212,48,o),
(212,186,cs),
(212,648,l),
(296,669,l),
(296,676,o),
(296,700,o),
(281,700,cs),
(281,700,o),
(264,700,o),
(170,696,c),
(77,700,o),
(54,700,o),
(54,700,c),
(38,700,o),
(38,676,o),
(38,670,c),
(133,648,l),
(133,159,ls,{
name = hr00;
})
);
}
);
width = 315;
}
);
unicode = 74;
},
{
glyphname = K;
layers = (
{
layerId = master01;
shapes = (
{
closed = 1;
nodes = (
(399,700,o),
(399,677,o),
(399,670,c),
(471,650,l),
(331,372,l),
(217,372,l),
(208,648,l),
(288,670,l),
(288,677,o),
(288,700,o),
(273,700,cs),
(273,700,o),
(261,700,o),
(168,696,c),
(74,700,o),
(65,700,o),
(65,700,c),
(50,700,o),
(50,677,o),
(50,670,c),
(134,648,l),
(134,52,l),
(50,30,l),
(50,23,o),
(50,0,o),
(65,0,cs),
(65,0,o),
(74,0,o),
(168,4,c),
(261,0,o),
(294,0,o),
(294,0,c),
(309,0,o),
(309,23,o),
(309,30,c),
(208,52,l),
(217,324,l),
(315,336,l),
(325,328,o),
(335,314,o),
(345,295,cs),
(506,0,l),
(637,0,ls),
(652,0,o),
(652,23,o),
(652,30,c),
(572,52,l),
(427,299,ls),
(407,333,o),
(389,349,o),
(371,357,c),
(537,648,l),
(604,670,l),
(604,677,o),
(602,700,o),
(590,700,cs),
(495,696,l),
(414,700,l,{
name = hr00;
})
);
}
);
width = 623;
}
);
unicode = 75;
},
{
glyphname = L;
layers = (
{
layerId = master01;
shapes = (
{
closed = 1;
nodes = (
(130,350,l),
(135,52,l),
(49,30,l),
(49,23,o),
(49,0,o),
(64,0,c),
(176,8,l),
(474,0,ls),
(494,0,o),
(502,1,o),
(503,12,cs),
(511,163,l),
(504,163,o),
(473,162,o),
(469,149,cs),
(443,55,l,{
name = hr01;
}),
(208,55,l),
(213,350,l),
(208,648,l),
(294,670,l),
(294,677,o),
(294,700,o),
(279,700,cs),
(279,700,o),
(269,700,o),
(176,696,c),
(82,700,o),
(64,700,o),
(64,700,c),
(49,700,o),
(49,677,o),
(49,670,c),
(135,648,l)
);
}
);
width = 521;
}
);
unicode = 76;
},
{
glyphname = Lslash;
layers = (
{
layerId = master01;
shapes = (
{
closed = 1;
nodes = (
(316,431,l),
(297,469,l),
(27,332,l),
(53,280,l,{
name = hr00;
})
);
},
{
ref = L;
}
);
width = 521;
}
);
unicode = 321;
},
{
glyphname = M;
layers = (
{
layerId = master01;
shapes = (
{
closed = 1;
nodes = (
(248,0,ls),
(264,0,o),
(264,22,o),
(264,30,c),
(169,52,l),
(192,594,l),
(423,50,l),
(442,50,l),
(695,601,l),
(716,52,l),
(621,30,l),
(621,22,o),
(621,0,o),
(637,0,cs),
(750,4,l),
(837,0,o),
(868,0,o),
(868,0,c),
(883,0,o),
(883,23,o),
(883,30,c),
(798,52,l),
(767,647,l),
(849,669,l),
(849,676,o),
(849,700,o),
(834,700,cs),
(834,700,o),
(799,700,o),
(676,696,c),
(445,184,l),
(236,696,l),
(113,700,o),
(74,700,o),
(74,700,c),
(59,700,o),
(59,676,o),
(59,669,c),
(141,647,l),
(110,52,l),
(25,30,l),
(25,23,o),
(25,0,o),
(40,0,cs),
(40,0,o),
(51,0,o),
(138,4,c,{
name = hr00;
})
);
}
);
width = 908;
}
);
unicode = 77;
},
{
glyphname = N;
layers = (
{
layerId = master01;
shapes = (
{
closed = 1;
nodes = (
(621,126,l),
(200,696,l),
(77,700,o),
(65,700,o),
(65,700,c),
(50,700,o),
(50,676,o),
(50,669,c),
(132,647,l),
(132,52,l),
(50,30,l),
(50,23,o),
(50,0,o),
(65,0,cs),
(65,0,o),
(76,0,o),
(163,4,c),
(284,0,l),
(300,0,o),
(300,22,o),
(300,30,c),
(194,52,l),
(186,583,l),
(616,0,l),
(672,0,l),
(675,648,l),
(750,670,l),
(750,677,o),
(750,700,o),
(735,700,cs),
(735,700,o),
(734,700,o),
(647,696,c),
(526,700,l),
(510,700,o),
(510,678,o),
(510,670,c),
(615,648,l,{
name = hr00;
})
);
}
);
width = 790;
}
);
unicode = 78;
},
{
glyphname = Eng;
layers = (
{
layerId = master01;
shapes = (
{
closed = 1;
nodes = (
(621,126,l),
(200,696,l),
(77,700,o),
(65,700,o),
(65,700,c),
(50,700,o),
(50,676,o),
(50,669,c),
(132,647,l),
(132,52,l),
(50,30,l),
(50,23,o),
(50,0,o),
(65,0,cs),
(65,0,o),
(76,0,o),
(163,4,c),
(284,0,ls),
(300,0,o),
(300,22,o),
(300,30,c),
(194,52,l),
(186,583,l),
(587,38,l),
(571,-56,o),
(523,-146,o),
(457,-233,c),
(487,-254,l),
(599,-130,o),
(672,-2,o),
(672,136,c),
(675,648,l),
(750,670,l),
(750,677,o),
(750,700,o),
(735,700,cs),
(735,700,o),
(734,700,o),
(647,696,c),
(526,700,ls),
(510,700,o),
(510,678,o),
(510,670,c),
(615,648,l,{
name = hr00;
})
);
}
);
width = 790;
}
);
unicode = 330;
},
{
glyphname = O;
layers = (
{
layerId = master01;
shapes = (
{
closed = 1;
nodes = (
(707,597,o),
(560,712,o),
(379,712,cs),
(192,712,o),
(40,588,o),
(40,354,cs),
(40,109,o),
(178,-12,o),
(363,-12,cs),
(563,-12,o),
(707,110,o),
(707,363,cs,{
name = hr00;
})
);
},
{
closed = 1;
nodes = (
(128,480,o),
(167,587,o),
(229,634,c),
(268,647,o),
(324,658,o),
(373,658,cs),
(513,658,o),
(619,557,o),
(619,352,cs),
(619,140,o),
(513,36,o),
(373,36,cs),
(234,36,o),
(128,140,o),
(128,352,cs)
);
}
);
width = 747;
}
);
unicode = 79;
},
{
glyphname = OE;
layers = (
{
layerId = master01;
shapes = (
{
closed = 1;
nodes = (
(523,696,l),
(467,705,o),
(412,712,o),
(355,712,cs),
(178,712,o),
(40,594,o),
(40,341,cs),
(40,98,o),
(179,-12,o),
(361,-12,cs),
(411,-12,o),
(472,-5,o),
(525,8,c),
(545,52,l),
(518,68,l),
(464,47,o),
(422,36,o),
(375,36,cs),
(235,36,o),
(128,141,o),
(128,355,cs),
(128,484,o),
(167,591,o),
(230,639,c),
(276,655,o),
(318,661,o),
(360,661,cs),
(409,661,o),
(457,652,o),
(508,638,c,{
name = hr00;
})
);
},
{
pos = (355,0);
ref = E;
}
);
width = 956;
}
);
unicode = 338;
},
{
glyphname = P;
layers = (
{
layerId = master01;
shapes = (
{
closed = 1;
nodes = (
(134,52,l),
(50,30,l),
(50,23,o),
(50,0,o),
(65,0,cs),
(65,0,o),
(74,0,o),
(168,4,c),
(261,0,o),
(304,0,o),
(304,0,c),
(319,0,o),
(319,23,o),
(319,30,c),
(208,52,l),
(215,276,l),
(282,282,ls),
(451,298,o),
(533,394,o),
(533,497,cs),
(533,610,o),
(456,700,o),
(326,700,c),
(168,696,l),
(74,700,o),
(65,700,o),
(65,700,c),
(50,700,o),
(50,677,o),
(50,670,c),
(134,648,l,{
name = hr00;
})
);
},
{
closed = 1;
nodes = (
(414,658,o),
(461,578,o),
(461,498,cs),
(461,416,o),
(411,327,o),
(290,327,c),
(218,331,l),
(208,648,l),
(308,658,l)
);
}
);
width = 563;
}
);
unicode = 80;
},
{
glyphname = Thorn;
layers = (
{
layerId = master01;
shapes = (
{
closed = 1;
nodes = (
(413,534,o),
(460,454,o),
(460,374,cs),
(460,292,o),
(410,203,o),
(289,203,c),
(212,208,l),
(153,154,l,{
name = hr01;
}),
(281,161,ls,{
name = hr02;
}),
(451,170,o),
(532,270,o),
(532,373,cs),
(532,486,o),
(455,576,o),
(325,576,c),
(167,572,l),
(207,524,l),
(307,534,l)
);
},
{
ref = I;
}
);
width = 562;
}
);
unicode = 222;
},
{
glyphname = Q;
layers = (
{
layerId = master01;
shapes = (
{
closed = 1;
nodes = (
(465,-224,o),
(477,-231,o),
(493,-231,cs),
(509,-231,o),
(529,-225,o),
(553,-210,c),
(426,-8,l),
(592,16,o),
(707,137,o),
(707,363,cs),
(707,597,o),
(560,712,o),
(379,712,cs),
(192,712,o),
(40,588,o),
(40,354,cs),
(40,109,o),
(178,-12,o),
(368,-12,c),
(460,-212,ls,{
name = hr00;
})
);
},
{
closed = 1;
nodes = (
(128,480,o),
(167,587,o),
(229,634,c),
(268,647,o),
(324,658,o),
(373,658,cs),
(513,658,o),
(619,557,o),
(619,352,cs),
(619,140,o),
(513,36,o),
(373,36,cs),
(234,36,o),
(128,140,o),
(128,352,cs)
);
}
);
width = 747;
}
);
unicode = 81;
},
{
glyphname = R;
layers = (
{
layerId = master01;
shapes = (
{
closed = 1;
nodes = (
(134,52,l),
(50,30,l),
(50,23,o),
(50,0,o),
(65,0,cs),
(65,0,o),
(74,0,o),
(168,4,c),
(261,0,o),
(294,0,o),
(294,0,c),
(309,0,o),
(309,23,o),
(309,30,c),
(208,52,l),
(216,301,l),
(310,316,l),
(322,308,o),
(333,294,o),
(345,272,cs),
(489,0,l),
(620,0,ls),
(635,0,o),
(635,23,o),
(635,30,c),
(555,52,l),
(427,276,ls),
(410,305,o),
(394,321,o),
(379,330,c),
(474,362,o),
(523,440,o),
(523,508,cs),
(523,611,o),
(449,700,o),
(324,700,cs),
(321,700,o),
(319,700,o),
(168,696,c),
(74,700,o),
(65,700,o),
(65,700,c),
(50,700,o),
(50,677,o),
(50,670,c),
(134,648,l,{
name = hr00;
})
);
},
{
closed = 1;
nodes = (
(404,658,o),
(451,583,o),
(451,510,cs),
(451,434,o),
(401,354,o),
(280,354,c),
(217,358,l),
(208,648,l),
(298,658,l)
);
}
);
width = 596;
}
);
unicode = 82;
},
{
glyphname = S;
layers = (
{
layerId = master01;
shapes = (
{
closed = 1;
nodes = (
(504,227,o),
(464,292,o),
(386,337,cs),
(214,435,ls),
(176,457,o),
(139,490,o),
(139,547,cs),
(139,559,o),
(140,573,o),
(144,587,c),
(178,642,o),
(236,662,o),
(292,662,cs),
(334,662,o),
(375,650,o),
(403,637,c),
(403,536,ls),
(403,522,o),
(437,522,o),
(445,522,c),
(471,676,l),
(415,697,o),
(356,712,o),
(298,712,c),
(150,712,o),
(69,622,o),
(69,528,cs),
(69,468,o),
(102,407,o),
(171,368,cs),
(348,267,ls),
(404,235,o),
(419,190,o),
(419,157,cs),
(419,92,o),
(376,36,o),
(276,36,cs),
(225,36,o),
(163,51,o),
(121,78,c),
(121,189,ls),
(121,201,o),
(86,201,o),
(78,201,cs),
(77,201,o),
(60,79,o),
(55,36,c),
(132,3,o),
(201,-12,o),
(268,-12,cs),
(402,-12,o),
(504,51,o),
(504,170,cs,{
name = hr00;
})
);
}
);
width = 554;
}
);
unicode = 83;
},
{
glyphname = T;
layers = (
{
layerId = master01;
shapes = (
{
closed = 1;
nodes = (
(37,700,ls,{
name = hr01;
}),
(19,700,o),
(6,700,o),
(5,690,c),
(16,533,l),
(24,533,o),
(58,533,o),
(58,547,cs),
(73,650,l),
(245,646,l),
(240,350,l),
(245,52,l),
(132,30,l),
(132,23,o),
(132,0,o),
(147,0,cs),
(147,0,o),
(190,0,o),
(284,4,c),
(377,0,o),
(416,0,o),
(416,0,c),
(431,0,o),
(431,23,o),
(431,30,c),
(318,52,l),
(323,350,l),
(318,646,l),
(490,650,l),
(505,547,l),
(505,533,o),
(539,533,o),
(547,533,c),
(558,690,l),
(557,700,o),
(544,700,o),
(526,700,cs),
(281,695,l)
);
}
);
width = 563;
}
);
unicode = 84;
},
{
glyphname = U;
layers = (
{
layerId = master01;
shapes = (
{
closed = 1;
nodes = (
(271,700,o),
(249,700,o),
(156,696,c),
(62,700,o),
(55,700,o),
(55,700,c),
(40,700,o),
(40,676,o),
(40,669,c),
(114,648,l),
(114,218,ls),
(114,55,o),
(217,-12,o),
(380,-12,cs),
(539,-12,o),
(633,82,o),
(633,218,cs),
(633,648,l),
(698,670,l),
(698,677,o),
(698,700,o),
(683,700,cs),
(683,700,o),
(677,699,o),
(605,696,c),
(496,700,ls),
(480,700,o),
(480,676,o),
(480,670,c),
(575,648,l),
(575,216,ls),
(575,127,o),
(515,43,o),
(382,43,cs),
(247,43,o),
(192,115,o),
(192,215,cs),
(192,648,l),
(287,670,l),
(287,676,o),
(287,700,o),
(271,700,c,{
name = hr00;
})
);
}
);
width = 733;
}
);
unicode = 85;
},
{
glyphname = V;
layers = (
{
layerId = master01;
shapes = (
{
closed = 1;
nodes = (
(237,678,o),
(237,700,o),
(222,700,cs),
(222,700,o),
(223,700,o),
(115,696,c),
(28,700,o),
(15,700,o),
(15,700,c),
(0,700,o),
(0,677,o),
(0,670,c),
(65,648,l),
(290,0,l),
(360,0,l),
(578,648,l),
(643,670,l),
(643,677,o),
(643,699,o),
(628,700,c),
(629,700,o),
(624,699,o),
(550,696,c),
(442,700,o),
(446,700,o),
(446,700,c),
(431,700,o),
(431,678,o),
(431,670,c),
(516,648,l),
(338,95,l),
(153,648,l),
(237,670,l,{
name = hr00;
})
);
}
);
width = 643;
}
);
unicode = 86;
},
{
glyphname = W;
layers = (
{
layerId = master01;
shapes = (
{
closed = 1;
nodes = (
(237,678,o),
(237,700,o),
(222,700,cs),
(222,700,o),
(223,700,o),
(115,696,c),
(28,700,o),
(15,700,o),
(15,700,c),
(0,700,o),
(0,677,o),
(0,670,c),
(65,648,l),
(247,0,l),
(323,0,l),
(460,447,l),
(599,0,l),
(675,0,l),
(855,648,l),
(920,670,l),
(920,677,o),
(920,698,o),
(905,700,c),
(906,700,o),
(901,699,o),
(827,696,c),
(724,700,ls),
(709,700,o),
(709,678,o),
(709,670,c),
(794,648,l),
(645,113,l),
(498,584,l),
(498,651,l),
(463,651,l),
(297,113,l),
(152,648,l),
(237,670,l,{
name = hr00;
})
);
}
);
width = 920;
}
);
unicode = 87;
},
{
glyphname = X;
layers = (
{
layerId = master01;
shapes = (
{
closed = 1;
nodes = (
(416,22,o),
(416,0,o),
(431,0,cs),
(431,0,o),
(451,0,o),
(559,4,c),
(646,0,o),
(666,0,o),
(666,0,c),
(681,0,o),
(681,23,o),
(681,30,c),
(601,52,l),
(392,365,l),
(595,648,l),
(660,670,l),
(660,677,o),
(660,699,o),
(645,700,c),
(646,700,o),
(642,699,o),
(567,696,c),
(456,700,ls),
(441,700,o),
(441,678,o),
(441,670,c),
(523,648,l),
(359,414,l),
(204,648,l),
(281,670,l),
(281,678,o),
(281,700,o),
(266,700,cs),
(266,700,o),
(267,700,o),
(159,696,c),
(72,700,o),
(51,700,o),
(51,700,c),
(36,700,o),
(36,677,o),
(36,670,c),
(111,648,l),
(307,353,l),
(90,52,l),
(15,30,l),
(15,23,o),
(15,0,o),
(29,0,cs),
(29,0,o),
(42,0,o),
(118,4,c),
(239,0,ls),
(254,0,o),
(254,22,o),
(254,30,c),
(162,52,l),
(339,305,l),
(508,52,l),
(416,30,l,{
name = hr00;
})
);
}
);
width = 696;
}
);
unicode = 88;
},
{
glyphname = Y;
layers = (
{
layerId = master01;
shapes = (
{
closed = 1;
nodes = (
(232,678,o),
(232,700,o),
(217,700,cs),
(217,700,o),
(220,700,o),
(112,696,c),
(25,700,o),
(15,700,o),
(15,700,c),
(0,700,o),
(0,677,o),
(0,670,c),
(65,648,l),
(259,277,l),
(259,52,l),
(154,30,l),
(154,23,o),
(154,0,o),
(169,0,cs),
(169,0,o),
(207,0,o),
(301,4,c),
(394,0,o),
(427,0,o),
(427,0,c),
(442,0,o),
(442,23,o),
(442,30,c),
(337,52,l),
(337,279,l),
(515,648,l),
(580,670,l),
(580,677,o),
(580,699,o),
(565,700,c),
(566,700,o),
(561,699,o),
(487,696,c),
(379,700,o),
(383,700,o),
(383,700,c),
(368,700,o),
(368,678,o),
(368,670,c),
(450,648,l),
(307,321,l),
(147,648,l),
(232,670,l,{
name = hr00;
})
);
}
);
width = 580;
}
);
unicode = 89;
},
{
glyphname = Z;
layers = (
{
layerId = master01;
shapes = (
{
closed = 1;
nodes = (
(146,55,l),
(577,695,l),
(555,712,l),
(520,689,l),
(106,700,o),
(102,700,o),
(100,700,cs,{
name = hr01;
}),
(86,700,o),
(80,697,o),
(79,688,c),
(104,537,l),
(111,537,o),
(146,537,o),
(146,551,cs),
(146,642,l,{
name = hr02;
}),
(456,642,l),
(28,8,l),
(45,-12,l),
(77,5,l),
(527,0,ls,{
name = hr03;
}),
(547,0,o),
(555,1,o),
(556,12,c),
(531,165,l,{
name = hr04;
}),
(524,165,o),
(489,165,o),
(489,151,cs),
(489,55,l)
);
}
);
width = 611;
}
);
unicode = 90;
},
{
glyphname = a;
layers = (
{
layerId = master01;
shapes = (
{
closed = 1;
nodes = (
(160,146,l),
(346,156,l),
(386,45,l),
(318,31,l),
(318,22,o),
(318,0,o),
(336,0,cs),
(336,0,o),
(352,0,o),
(423,3,c),
(486,0,o),
(504,0,o),
(504,0,c),
(521,0,o),
(521,23,o),
(521,30,c),
(463,46,l),
(292,489,l),
(227,489,l),
(58,45,l),
(0,30,l),
(0,11,o),
(6,0,o),
(17,0,c),
(86,3,l),
(165,0,o),
(173,0,o),
(173,0,c),
(191,0,o),
(191,22,o),
(191,31,c),
(124,45,l,{
name = hr00;
})
);
},
{
closed = 1;
nodes = (
(330,198,l),
(177,198,l),
(253,412,l)
);
}
);
width = 521;
}
);
unicode = 97;
},
{
glyphname = ae;
layers = (
{
layerId = master01;
shapes = (
{
closed = 1;
nodes = (
(604,0,o),
(607,0,o),
(609,0,cs,{
name = hr01;
}),
(622,0,o),
(627,3,o),
(629,12,c),
(635,123,l),
(607,123,o),
(597,121,o),
(593,106,cs),
(576,49,l,{
name = hr02;
}),
(423,49,l),
(382,223,l),
(544,233,l),
(544,274,l),
(370,274,l),
(331,440,l),
(533,442,l),
(533,384,ls),
(533,369,o),
(566,369,o),
(574,369,c),
(592,475,l),
(592,489,o),
(580,489,o),
(562,489,cs,{
name = hr03;
}),
(320,486,l),
(250,489,l),
(47,46,l),
(-10,31,l),
(-10,23,o),
(-10,0,o),
(7,0,cs),
(7,0,o),
(8,0,o),
(75,3,c),
(156,0,o),
(157,0,o),
(157,0,c),
(174,0,o),
(174,22,o),
(174,31,c),
(106,45,l),
(151,147,l),
(325,156,l),
(351,46,l),
(286,31,l,{
name = hr04;
}),
(286,22,o),
(286,0,o),
(303,0,c),
(391,6,l)
);
},
{
closed = 1;
nodes = (
(316,198,l),
(174,198,l),
(266,410,l)
);
}
);
width = 672;
}
);
unicode = 230;
},
{
glyphname = b;
layers = (
{
layerId = master01;
shapes = (
{
closed = 1;
nodes = (
(390,0,o),
(449,62,o),
(449,136,cs),
(449,188,o),
(415,240,o),
(341,262,c),
(384,285,o),
(408,326,o),
(408,366,cs,{
name = hr01;
}),
(408,428,o),
(354,489,o),
(245,489,c),
(156,486,l),
(88,489,o),
(73,489,o),
(73,489,c),
(55,489,o),
(55,466,o),
(55,458,c),
(119,444,l),
(119,45,l),
(55,31,l),
(55,23,o),
(55,0,o),
(73,0,c),
(156,6,l),
(290,0,l)
);
},
{
closed = 1;
nodes = (
(255,42,o),
(220,44,o),
(184,50,c),
(191,230,l),
(259,238,l),
(335,235,o),
(377,185,o),
(377,136,cs,{
name = hr02;
}),
(377,89,o),
(344,42,o),
(272,42,cs)
);
},
{
closed = 1;
nodes = (
(302,449,o),
(339,407,o),
(339,364,cs,{
name = hr03;
}),
(339,323,o),
(307,279,o),
(242,274,c),
(191,274,l),
(184,443,l),
(237,451,l)
);
}
);
width = 489;
}
);
unicode = 98;
},
{
glyphname = c;
layers = (
{
layerId = master01;
shapes = (
{
closed = 1;
nodes = (
(445,144,o),
(414,143,o),
(409,131,c),
(392,63,l),
(362,46,o),
(328,40,o),
(285,40,cs),
(188,40,o),
(112,107,o),
(112,246,cs),
(112,329,o),
(142,399,o),
(184,430,c),
(212,438,o),
(250,445,o),
(285,445,cs),
(317,445,o),
(360,439,o),
(384,431,c),
(384,359,l),
(384,343,o),
(419,343,o),
(427,343,c),
(448,453,l),
(403,482,o),
(349,497,o),
(290,497,cs),
(149,497,o),
(35,411,o),
(35,247,cs),
(35,76,o),
(139,-8,o),
(278,-8,cs),
(343,-8,o),
(402,7,o),
(446,38,c),
(452,144,l,{
name = hr00;
})
);
}
);
width = 497;
}
);
unicode = 99;
},
{
glyphname = d;
layers = (
{
layerId = master01;
shapes = (
{
closed = 1;
nodes = (
(119,45,l),
(55,31,l),
(55,23,o),
(55,0,o),
(73,0,c),
(157,6,l),
(294,-4,l,{
name = hr01;
}),
(444,-4,o),
(552,77,o),
(552,253,cs),
(552,438,o),
(419,497,o),
(283,497,c),
(242,494,o),
(197,489,o),
(156,486,c),
(88,489,o),
(73,489,o),
(73,489,c,{
name = hr02;
}),
(55,489,o),
(55,466,o),
(55,458,c),
(119,444,l)
);
},
{
closed = 1;
nodes = (
(186,440,l),
(219,446,o),
(256,450,o),
(285,450,cs,{
name = hr03;
}),
(394,450,o),
(474,399,o),
(474,246,cs),
(474,105,o),
(400,40,o),
(302,40,cs),
(265,40,o),
(223,43,o),
(186,50,c),
(196,251,l)
);
}
);
width = 582;
}
);
unicode = 100;
},
{
glyphname = eth;
layers = (
{
layerId = master01;
shapes = (
{
closed = 1;
nodes = (
(361,234,l),
(361,273,l,{
name = hr01;
}),
(59,273,l),
(59,221,l)
);
},
{
ref = d;
}
);
width = 582;
}
);
unicode = 240;
},
{
glyphname = e;
layers = (
{
layerId = master01;
shapes = (
{
closed = 1;
nodes = (
(422,0,o),
(429,1,o),
(431,12,c),
(437,123,l),
(409,123,o),
(399,121,o),
(395,106,cs),
(378,49,l,{
name = hr01;
}),
(186,49,l),
(194,222,l),
(380,233,l),
(380,274,l),
(195,274,l),
(186,440,l),
(369,442,l),
(369,384,ls),
(369,369,o),
(402,369,o),
(410,369,c),
(428,475,l),
(428,489,o),
(416,489,o),
(398,489,cs,{
name = hr02;
}),
(156,486,l),
(88,489,o),
(73,489,o),
(73,489,c),
(55,489,o),
(55,466,o),
(55,458,c),
(119,444,l),
(119,45,l),
(55,31,l),
(55,23,o),
(55,0,o),
(73,0,c),
(156,6,l),
(403,0,ls)
);
}
);
width = 482;
}
);
unicode = 101;
},
{
glyphname = f;
layers = (
{
layerId = master01;
shapes = (
{
closed = 1;
nodes = (
(373,264,l),
(195,264,l),
(186,440,l),
(347,442,l),
(347,384,ls),
(347,369,o),
(380,369,o),
(388,369,c),
(406,475,l),
(406,489,o),
(394,489,o),
(376,489,cs,{
name = hr01;
}),
(156,486,l),
(88,489,o),
(73,489,o),
(73,489,c),
(55,489,o),
(55,466,o),
(55,458,c),
(119,444,l),
(119,45,l),
(55,31,l),
(55,23,o),
(55,0,o),
(73,0,c),
(156,6,l),
(255,0,l),
(272,0,o),
(272,23,o),
(272,31,c),
(187,45,l),
(194,212,l),
(373,223,l)
);
}
);
width = 441;
}
);
unicode = 102;
},
{
glyphname = g;
layers = (
{
layerId = master01;
shapes = (
{
closed = 1;
nodes = (
(461,257,l),
(257,257,l),
(257,216,l),
(393,209,l),
(404,74,l),
(374,51,o),
(325,40,o),
(285,40,cs),
(187,40,o),
(113,107,o),
(113,246,cs),
(113,329,o),
(141,399,o),
(184,430,c),
(212,438,o),
(250,445,o),
(285,445,cs),
(320,445,o),
(365,439,o),
(392,431,c),
(392,359,l),
(392,343,o),
(426,343,o),
(434,343,c),
(455,453,l),
(407,482,o),
(352,497,o),
(289,497,cs),
(149,497,o),
(35,411,o),
(35,248,cs),
(35,76,o),
(138,-8,o),
(277,-8,cs),
(341,-8,o),
(406,10,o),
(469,53,c),
(461,82,l,{
name = hr00;
})
);
}
);
width = 519;
}
);
unicode = 103;
},
{
glyphname = h;
layers = (
{
layerId = master01;
shapes = (
{
closed = 1;
nodes = (
(438,274,l),
(195,274,l),
(187,444,l),
(254,459,l),
(254,466,o),
(254,489,o),
(237,489,cs),
(237,489,o),
(218,489,o),
(156,486,c),
(88,489,o),
(73,489,o),
(73,489,c),
(55,489,o),
(55,466,o),
(55,458,c),
(119,444,l),
(119,45,l),
(55,31,l),
(55,23,o),
(55,0,o),
(73,0,c),
(156,6,l),
(237,0,l),
(254,0,o),
(254,23,o),
(254,31,c),
(187,45,l),
(194,222,l),
(438,232,l),
(446,45,l),
(379,31,l),
(379,23,o),
(379,0,o),
(397,0,c),
(480,6,l),
(561,0,l),
(578,0,o),
(578,23,o),
(578,31,c),
(514,45,l),
(514,444,l),
(578,459,l),
(578,466,o),
(578,489,o),
(561,489,cs),
(561,489,o),
(542,489,o),
(480,486,c),
(412,489,o),
(397,489,o),
(397,489,c),
(379,489,o),
(379,466,o),
(379,458,c),
(446,444,l,{
name = hr00;
})
);
}
);
width = 633;
}
);
unicode = 104;
},
{
glyphname = i;
layers = (
{
layerId = master01;
shapes = (
{
closed = 1;
nodes = (
(119,45,l),
(55,31,l),
(55,23,o),
(55,0,o),
(73,0,c),
(156,6,l),
(237,0,l),
(254,0,o),
(254,23,o),
(254,31,c),
(190,45,l),
(190,444,l),
(254,459,l),
(254,466,o),
(254,489,o),
(237,489,cs),
(237,489,o),
(218,489,o),
(156,486,c),
(88,489,o),
(73,489,o),
(73,489,c),
(55,489,o),
(55,466,o),
(55,458,c),
(119,444,l,{
name = hr00;
})
);
}
);
width = 309;
}
);
unicode = 105;
},
{
glyphname = dotlessi;
layers = (
{
layerId = master01;
shapes = (
{
closed = 1;
nodes = (
(119,45,l),
(55,31,l),
(55,23,o),
(55,0,o),
(73,0,c),
(156,6,l),
(237,0,l),
(254,0,o),
(254,23,o),
(254,31,c),
(190,45,l),
(190,444,l),
(254,459,l),
(254,466,o),
(254,489,o),
(237,489,cs),
(237,489,o),
(218,489,o),
(156,486,c),
(88,489,o),
(73,489,o),
(73,489,c),
(55,489,o),
(55,466,o),
(55,458,c),
(119,444,l,{
name = hr00;
})
);
}
);
width = 309;
}
);
unicode = 305;
},
{
glyphname = j;
layers = (
{
layerId = master01;
shapes = (
{
closed = 1;
nodes = (
(109,33,o),
(67,-46,o),
(7,-120,c),
(38,-141,l),
(124,-53,o),
(180,37,o),
(180,133,cs),
(180,443,l),
(244,457,l),
(244,464,o),
(244,489,o),
(226,489,cs),
(226,489,o),
(205,489,o),
(142,486,c),
(74,489,o),
(48,489,o),
(48,489,c),
(30,489,o),
(30,464,o),
(30,458,c),
(50,453,o),
(88,448,o),
(109,443,c),
(109,114,l,{
name = hr00;
})
);
}
);
width = 279;
}
);
unicode = 106;
},
{
glyphname = dotlessj;
layers = (
{
layerId = master01;
shapes = (
{
closed = 1;
nodes = (
(109,33,o),
(67,-46,o),
(7,-120,c),
(38,-141,l),
(124,-53,o),
(180,37,o),
(180,133,c),
(180,443,l),
(244,457,l),
(244,464,o),
(244,489,o),
(226,489,cs),
(226,489,o),
(205,489,o),
(142,486,c),
(74,489,o),
(48,489,o),
(48,489,c),
(30,489,o),
(30,464,o),
(30,458,c),
(50,453,o),
(88,448,o),
(109,443,c),
(109,114,l,{
name = hr00;
})
);
}
);
width = 279;
}
);
unicode = 567;
},
{
glyphname = k;
layers = (
{
layerId = master01;
shapes = (
{
closed = 1;
nodes = (
(112,45,l),
(48,31,l),
(48,23,o),
(48,0,o),
(66,0,c),
(149,6,l),
(239,0,l),
(256,0,o),
(256,23,o),
(256,31,c),
(180,45,l),
(187,221,l),
(245,228,l),
(421,-21,l,{
name = hr01;
}),
(471,-6,l),
(306,253,l),
(418,443,l),
(469,459,l),
(469,466,o),
(466,489,o),
(452,489,cs),
(383,486,l),
(333,489,l),
(316,489,o),
(316,464,o),
(316,458,c),
(358,445,l),
(259,265,l),
(188,265,l),
(180,444,l),
(237,459,l),
(237,466,o),
(237,489,o),
(220,489,cs),
(220,489,o),
(211,489,o),
(149,486,c),
(81,489,o),
(66,489,o),
(66,489,c),
(48,489,o),
(48,466,o),
(48,458,c),
(112,444,l)
);
}
);
width = 509;
}
);
unicode = 107;
},
{
glyphname = l;
layers = (
{
layerId = master01;
shapes = (
{
closed = 1;
nodes = (
(395,0,o),
(402,1,o),
(404,12,c),
(410,123,l),
(382,123,o),
(372,121,o),
(368,106,c),
(351,49,l,{
name = hr01;
}),
(190,49,l),
(190,444,l),
(254,459,l),
(254,472,o),
(251,489,o),
(237,489,c),
(156,486,l),
(73,489,l),
(58,489,o),
(55,466,o),
(55,458,c),
(119,444,l),
(119,45,l),
(55,31,l),
(55,23,o),
(55,0,o),
(73,0,c,{
name = hr02;
}),
(156,6,l),
(376,0,ls)
);
}
);
width = 430;
}
);
unicode = 108;
},
{
glyphname = lslash;
layers = (
{
layerId = master01;
shapes = (
{
closed = 1;
nodes = (
(290,304,l),
(272,339,l),
(29,215,l),
(53,168,l,{
name = hr00;
})
);
},
{
ref = l;
}
);
width = 430;
}
);
unicode = 322;
},
{
glyphname = m;
layers = (
{
layerId = master01;
shapes = (
{
closed = 1;
nodes = (
(74,489,o),
(74,464,o),
(74,457,c),
(137,443,l),
(114,45,l,{
name = hr01;
}),
(50,31,l),
(50,23,o),
(50,0,o),
(67,0,c),
(142,6,l),
(224,0,l),
(243,0,o),
(243,22,o),
(243,31,c),
(223,35,o),
(195,40,o),
(174,45,c),
(187,382,l),
(346,34,l),
(369,34,l),
(543,389,l),
(558,46,l),
(488,31,l),
(488,22,o),
(488,0,o),
(506,0,c),
(589,6,l),
(674,0,l),
(691,0,o),
(691,23,o),
(691,31,c),
(675,36,o),
(644,40,o),
(627,45,c),
(603,442,l),
(666,457,l),
(666,470,o),
(660,489,o),
(649,489,c),
(530,483,l),
(366,146,l),
(218,483,l),
(91,489,l)
);
}
);
width = 741;
}
);
unicode = 109;
},
{
glyphname = n;
layers = (
{
layerId = master01;
shapes = (
{
closed = 1;
nodes = (
(385,489,o),
(385,464,o),
(385,457,c),
(464,443,l),
(470,110,l),
(173,486,l),
(82,489,o),
(68,489,o),
(68,489,c),
(50,489,o),
(50,464,o),
(50,457,c),
(113,443,l),
(116,46,l),
(50,31,l),
(50,23,o),
(50,0,o),
(68,0,c),
(143,6,l),
(235,0,l),
(253,0,o),
(253,22,o),
(253,31,c),
(233,35,o),
(195,40,o),
(174,45,c),
(166,385,l),
(476,0,l),
(521,0,l),
(524,443,l),
(581,458,l),
(581,465,o),
(581,487,o),
(564,489,c),
(496,486,l),
(402,489,ls,{
name = hr00;
})
);
}
);
width = 631;
}
);
unicode = 110;
},
{
glyphname = eng;
layers = (
{
layerId = master01;
shapes = (
{
closed = 1;
nodes = (
(385,489,o),
(385,464,o),
(385,457,c),
(464,443,l),
(470,110,l),
(173,486,l),
(82,489,o),
(68,489,o),
(68,489,c),
(50,489,o),
(50,464,o),
(50,457,c),
(113,443,l),
(116,46,l),
(50,31,l),
(50,23,o),
(50,0,o),
(68,0,c),
(143,6,l),
(235,0,l),
(253,0,o),
(253,22,o),
(253,31,c),
(233,35,o),
(195,40,o),
(174,45,c),
(166,385,l),
(449,33,l,{
name = hr01;
}),
(445,-62,o),
(421,-151,o),
(364,-243,c),
(391,-262,l),
(484,-142,o),
(521,-17,o),
(521,72,cs),
(524,443,l),
(581,458,l),
(581,465,o),
(581,487,o),
(564,489,c),
(496,486,l),
(402,489,ls)
);
}
);
width = 631;
}
);
unicode = 331;
},
{
glyphname = o;
layers = (
{
layerId = master01;
shapes = (
{
closed = 1;
nodes = (
(537,417,o),
(425,497,o),
(290,497,cs),
(149,497,o),
(35,411,o),
(35,247,cs),
(35,76,o),
(139,-8,o),
(279,-8,cs),
(429,-8,o),
(537,77,o),
(537,253,cs,{
name = hr00;
})
);
},
{
closed = 1;
nodes = (
(113,331,o),
(142,402,o),
(184,434,c),
(212,442,o),
(250,449,o),
(286,449,cs),
(384,449,o),
(459,382,o),
(459,246,cs),
(459,105,o),
(384,36,o),
(286,36,cs),
(188,36,o),
(113,105,o),
(113,246,cs)
);
}
);
width = 572;
}
);
unicode = 111;
},
{
glyphname = oe;
layers = (
{
layerId = master01;
shapes = (
{
closed = 1;
nodes = (
(356,492,o),
(314,497,o),
(272,497,cs),
(138,497,o),
(35,415,o),
(35,239,cs),
(35,69,o),
(139,-8,o),
(277,-8,cs),
(314,-8,o),
(359,-4,o),
(398,6,c),
(645,0,ls,{
name = hr01;
}),
(664,0,o),
(671,1,o),
(673,12,c),
(679,123,l),
(651,123,o),
(641,121,o),
(637,106,cs),
(620,49,l,{
name = hr02;
}),
(428,49,l),
(436,222,l),
(622,233,l),
(622,274,l),
(437,274,l),
(428,440,l),
(611,442,l),
(611,384,ls),
(611,369,o),
(644,369,o),
(652,369,c),
(670,475,l),
(670,489,o),
(658,489,o),
(640,489,cs),
(395,486,l)
);
},
{
closed = 1;
nodes = (
(188,36,o),
(113,106,o),
(113,248,cs),
(113,333,o),
(140,403,o),
(183,436,c),
(216,445,o),
(246,451,o),
(276,451,cs),
(304,451,o),
(333,447,o),
(363,440,c),
(363,49,l,{
name = hr04;
}),
(334,40,o),
(313,36,o),
(286,36,cs,{
name = hr03;
})
);
}
);
width = 724;
}
);
unicode = 339;
},
{
glyphname = p;
layers = (
{
layerId = master01;
shapes = (
{
closed = 1;
nodes = (
(253,449,l),
(325,448,o),
(357,394,o),
(357,339,cs),
(357,282,o),
(318,223,o),
(239,220,c),
(196,222,l),
(187,442,l,{
name = hr00;
})
);
},
{
closed = 1;
nodes = (
(88,489,o),
(73,489,o),
(73,489,c),
(55,489,o),
(55,466,o),
(55,458,c),
(119,444,l),
(119,45,l),
(55,31,l),
(55,23,o),
(55,0,o),
(73,0,c),
(156,6,l),
(255,0,l),
(272,0,o),
(272,23,o),
(272,31,c),
(187,45,l),
(194,177,l),
(234,179,ls),
(362,185,o),
(424,261,o),
(424,338,cs),
(424,422,o),
(364,489,o),
(266,489,c),
(156,486,l)
);
}
);
width = 454;
}
);
unicode = 112;
},
{
glyphname = thorn;
layers = (
{
layerId = master01;
shapes = (
{
closed = 1;
nodes = (
(253,362,l),
(325,361,o),
(357,307,o),
(357,252,cs),
(357,195,o),
(318,133,o),
(239,133,cs),
(190,133,l),
(190,355,l,{
name = hr00;
})
);
},
{
closed = 1;
nodes = (
(139,357,l),
(139,88,l),
(186,88,l),
(234,92,ls),
(362,103,o),
(424,174,o),
(424,251,cs),
(424,335,o),
(364,402,o),
(266,402,c),
(156,402,l)
);
},
{
ref = i;
}
);
width = 454;
}
);
unicode = 254;
},
{
glyphname = q;
layers = (
{
layerId = master01;
shapes = (
{
closed = 1;
nodes = (
(534,-120,l),
(376,5,l),
(474,36,o),
(537,117,o),
(537,253,cs),
(537,417,o),
(425,497,o),
(290,497,cs),
(149,497,o),
(35,411,o),
(35,247,cs),
(35,76,o),
(138,-7,o),
(277,-8,c),
(507,-159,l,{
name = hr00;
})
);
},
{
closed = 1;
nodes = (
(113,331,o),
(142,402,o),
(184,434,c),
(212,442,o),
(250,449,o),
(286,449,cs),
(384,449,o),
(459,382,o),
(459,246,cs),
(459,105,o),
(384,36,o),
(286,36,cs),
(188,36,o),
(113,105,o),
(113,246,cs)
);
}
);
width = 572;
}
);
unicode = 113;
},
{
glyphname = r;
layers = (
{
layerId = master01;
shapes = (
{
closed = 1;
nodes = (
(253,215,l),
(419,-21,l),
(470,-6,l),
(323,231,l),
(387,256,o),
(417,308,o),
(417,353,cs),
(417,427,o),
(358,489,o),
(258,489,c),
(156,486,l),
(88,489,o),
(73,489,o),
(73,489,c),
(55,489,o),
(55,466,o),
(55,458,c),
(119,444,l),
(119,45,l),
(55,31,l),
(55,23,o),
(55,0,o),
(73,0,c),
(156,6,l),
(246,0,l),
(263,0,o),
(263,23,o),
(263,31,c),
(187,45,l),
(194,206,l,{
name = hr00;
})
);
},
{
closed = 1;
nodes = (
(187,444,l),
(246,449,l),
(318,448,o),
(351,400,o),
(351,354,cs),
(351,306,o),
(311,256,o),
(232,253,c),
(196,254,l)
);
}
);
width = 489;
}
);
unicode = 114;
},
{
glyphname = s;
layers = (
{
layerId = master01;
shapes = (
{
closed = 1;
nodes = (
(387,163,o),
(358,209,o),
(297,241,cs),
(172,307,ls),
(138,325,o),
(120,349,o),
(120,378,cs),
(120,386,o),
(121,395,o),
(124,404,c),
(147,438,o),
(186,450,o),
(225,450,cs),
(252,450,o),
(280,444,o),
(300,437,c),
(300,371,l),
(300,356,o),
(334,356,o),
(343,356,c),
(364,471,l),
(320,486,o),
(273,497,o),
(230,497,cs),
(117,497,o),
(56,433,o),
(56,366,cs),
(56,324,o),
(84,280,o),
(135,252,cs),
(263,183,ls),
(299,163,o),
(312,133,o),
(312,113,cs),
(312,71,o),
(282,38,o),
(213,38,cs),
(178,38,o),
(137,46,o),
(107,62,c),
(107,134,l),
(107,149,o),
(76,149,o),
(69,149,cs),
(67,149,o),
(48,58,o),
(45,26,c),
(103,3,o),
(157,-8,o),
(208,-8,cs),
(310,-8,o),
(387,37,o),
(387,122,cs,{
name = hr00;
})
);
}
);
width = 432;
}
);
unicode = 115;
},
{
glyphname = t;
layers = (
{
layerId = master01;
shapes = (
{
closed = 1;
nodes = (
(193,48,l),
(112,31,l),
(112,23,o),
(112,0,o),
(131,0,c),
(230,6,l),
(327,0,l),
(344,0,o),
(344,23,o),
(344,31,c),
(263,48,l),
(263,441,l),
(301,441,o),
(340,443,o),
(377,443,c),
(387,373,l),
(387,358,o),
(420,358,o),
(427,358,c),
(437,476,l),
(435,489,o),
(424,489,o),
(407,489,c,{
name = hr01;
}),
(230,485,l),
(50,489,l),
(34,489,o),
(22,489,o),
(20,476,c),
(30,358,l),
(38,358,o),
(70,358,o),
(70,373,c),
(80,443,l),
(193,441,l)
);
}
);
width = 457;
}
);
unicode = 116;
},
{
glyphname = u;
layers = (
{
layerId = master01;
shapes = (
{
closed = 1;
nodes = (
(220,489,o),
(199,489,o),
(137,486,c),
(67,489,o),
(62,489,o),
(62,489,c),
(45,489,o),
(45,464,o),
(45,457,c),
(99,443,l),
(99,155,ls),
(99,39,o),
(177,-8,o),
(300,-8,cs),
(420,-8,o),
(492,57,o),
(492,155,cs),
(492,443,l),
(539,458,l),
(539,466,o),
(539,489,o),
(519,489,cs),
(519,489,o),
(511,488,o),
(465,486,c),
(385,489,l),
(369,489,o),
(366,473,o),
(366,458,c),
(436,443,l),
(436,153,ls),
(436,95,o),
(394,41,o),
(301,41,cs),
(208,41,o),
(170,87,o),
(170,152,cs),
(170,443,l),
(239,458,l),
(239,464,o),
(239,489,o),
(220,489,cs,{
name = hr00;
})
);
}
);
width = 579;
}
);
unicode = 117;
},
{
glyphname = v;
layers = (
{
layerId = master01;
shapes = (
{
closed = 1;
nodes = (
(202,473,o),
(199,489,o),
(185,489,c),
(107,486,l),
(43,489,o),
(34,489,o),
(34,489,c),
(15,489,o),
(15,466,o),
(15,459,c),
(64,443,l),
(229,0,l),
(291,0,l),
(451,444,l),
(500,459,l),
(500,466,o),
(500,487,o),
(482,489,c),
(425,486,l),
(346,489,l),
(331,489,o),
(328,473,o),
(328,458,c),
(346,454,o),
(369,449,o),
(388,444,c),
(266,84,l),
(142,444,l),
(202,458,l,{
name = hr00;
})
);
}
);
width = 515;
}
);
unicode = 118;
},
{
glyphname = w;
layers = (
{
layerId = master01;
shapes = (
{
closed = 1;
nodes = (
(202,473,o),
(199,489,o),
(184,489,c),
(106,486,l),
(33,489,l),
(18,489,o),
(15,472,o),
(15,459,c),
(63,443,l),
(197,0,l),
(264,0,l),
(358,289,l),
(454,0,l),
(521,0,l),
(653,443,l),
(701,458,l),
(701,465,o),
(701,487,o),
(684,489,c),
(627,486,l),
(548,489,l),
(532,489,o),
(529,473,o),
(529,458,c),
(548,453,o),
(570,449,o),
(590,444,c),
(491,95,l),
(378,454,l),
(354,454,l),
(237,95,l),
(141,444,l),
(202,458,l,{
name = hr00;
})
);
}
);
width = 716;
}
);
unicode = 119;
},
{
glyphname = x;
layers = (
{
layerId = master01;
shapes = (
{
closed = 1;
nodes = (
(335,22,o),
(335,0,o),
(353,0,c),
(438,6,l),
(518,0,l),
(536,0,o),
(536,23,o),
(536,31,c),
(521,36,o),
(489,41,o),
(473,46,c),
(324,253,l),
(469,443,l),
(518,459,l),
(518,466,o),
(518,487,o),
(501,489,c),
(444,486,l),
(361,489,l),
(346,489,o),
(343,473,o),
(343,458,c),
(360,454,o),
(380,450,o),
(399,445,c),
(291,299,l),
(186,444,l),
(239,458,l),
(239,473,o),
(236,489,o),
(221,489,c),
(137,486,l),
(66,489,l),
(54,489,o),
(48,478,o),
(48,458,c),
(105,443,l),
(245,247,l),
(89,46,l),
(30,30,l),
(30,23,o),
(30,0,o),
(48,0,c),
(115,6,l),
(198,0,l),
(216,0,o),
(216,22,o),
(216,31,c),
(199,35,o),
(178,39,o),
(160,44,c),
(277,203,l),
(391,44,l),
(335,31,l,{
name = hr00;
})
);
}
);
width = 566;
}
);
unicode = 120;
},
{
glyphname = y;
layers = (
{
layerId = master01;
shapes = (
{
closed = 1;
nodes = (
(275,195,l),
(404,443,l),
(453,459,l),
(453,466,o),
(453,487,o),
(436,489,c),
(378,486,l),
(302,489,l),
(287,489,o),
(284,473,o),
(284,458,c),
(302,453,o),
(325,449,o),
(344,444,c),
(246,240,l),
(140,444,l),
(198,458,l),
(198,473,o),
(196,489,o),
(181,489,c),
(104,486,l),
(40,489,o),
(34,489,o),
(34,489,c),
(15,489,o),
(15,466,o),
(15,459,c),
(65,443,l),
(205,194,l),
(205,46,l),
(134,31,l),
(134,23,o),
(134,0,o),
(153,0,c),
(242,6,l),
(329,0,l),
(346,0,o),
(346,23,o),
(346,31,c),
(275,46,l,{
name = hr00;
})
);
}
);
width = 468;
}
);
unicode = 121;
},
{
glyphname = z;
layers = (
{
layerId = master01;
shapes = (
{
closed = 1;
nodes = (
(137,49,l),
(449,480,l),
(425,498,l),
(393,478,l),
(91,489,l,{
name = hr01;
}),
(76,489,o),
(70,485,o),
(70,475,c),
(88,366,l),
(96,366,o),
(129,366,o),
(129,382,c),
(129,437,l,{
name = hr02;
}),
(339,437,l),
(30,12,l),
(49,-9,l),
(81,9,l),
(404,0,l,{
name = hr03;
}),
(423,0,o),
(431,2,o),
(431,15,c),
(413,124,l,{
name = hr04;
}),
(405,124,o),
(372,124,o),
(372,109,c),
(372,49,l)
);
}
);
width = 479;
}
);
unicode = 122;
},
{
glyphname = ordfeminine;
layers = (
{
layerId = master01;
shapes = (
{
closed = 1;
nodes = (
(97,482,l),
(200,488,l),
(223,426,l),
(183,417,l),
(183,410,o),
(183,395,o),
(198,395,cs),
(198,395,o),
(213,395,o),
(249,397,c),
(287,395,o),
(297,395,o),
(297,395,c),
(312,395,o),
(312,411,o),
(312,416,c),
(277,426,l),
(175,689,l),
(134,689,l),
(33,425,l),
(-1,416,l),
(-1,403,o),
(5,395,o),
(13,395,cs),
(24,395,o),
(42,397,o),
(54,397,cs),
(101,395,ls),
(116,395,o),
(116,411,o),
(116,418,c),
(76,425,l)
);
},
{
closed = 1;
nodes = (
(23,349,l),
(28,306,l),
(54,302,o),
(94,298,o),
(135,298,cs,{
name = hr01;
}),
(196,298,o),
(261,304,o),
(298,321,c),
(292,349,l)
);
},
{
closed = 1;
nodes = (
(189,517,l),
(108,517,l),
(148,629,l)
);
}
);
width = 313;
}
);
unicode = 170;
},
{
glyphname = ordmasculine;
layers = (
{
layerId = master01;
shapes = (
{
closed = 1;
nodes = (
(324,646,o),
(256,694,o),
(173,694,cs),
(87,694,o),
(18,643,o),
(18,544,cs),
(18,442,o),
(81,390,o),
(166,390,cs),
(257,390,o),
(324,442,o),
(324,548,cs,{
name = hr00;
})
);
},
{
closed = 1;
nodes = (
(72,594,o),
(88,635,o),
(112,653,c),
(128,658,o),
(150,662,o),
(171,662,cs),
(227,662,o),
(269,623,o),
(269,544,cs),
(269,460,o),
(227,421,o),
(171,421,cs),
(115,421,o),
(72,460,o),
(72,544,cs)
);
},
{
closed = 1;
nodes = (
(34,349,l),
(39,306,l),
(65,302,o),
(105,298,o),
(146,298,cs),
(207,298,o),
(272,304,o),
(309,321,c),
(303,349,l)
);
}
);
width = 343;
}
);
unicode = 186;
},
{
glyphname = pi;
layers = (
{
layerId = master01;
shapes = (
{
closed = 1;
nodes = (
(341,106,o),
(358,74,o),
(425,-12,c),
(452,7,l),
(419,83,o),
(412,83,o),
(412,192,cs),
(412,399,l),
(482,399,ls),
(496,399,o),
(496,429,o),
(496,436,cs),
(496,437,o),
(372,457,o),
(356,457,cs),
(160,457,ls),
(144,457,o),
(20,437,o),
(20,436,cs),
(20,429,o),
(20,399,o),
(34,399,cs),
(105,399,l),
(105,0,l,{
name = hr01;
}),
(176,0,l),
(176,399,l),
(340,399,l),
(341,195,ls)
);
}
);
width = 521;
}
);
unicode = 960;
},
{
glyphname = zero;
layers = (
{
layerId = master01;
shapes = (
{
closed = 1;
nodes = (
(481,471,o),
(380,563,o),
(259,563,cs),
(132,563,o),
(29,463,o),
(29,277,cs),
(29,82,o),
(123,-12,o),
(247,-12,cs),
(383,-12,o),
(481,84,o),
(481,285,cs,{
name = hr00;
})
);
},
{
closed = 1;
nodes = (
(398,113,o),
(348,37,o),
(255,37,cs),
(162,37,o),
(112,113,o),
(112,275,cs),
(112,437,o),
(162,513,o),
(255,513,cs),
(348,513,o),
(398,437,o),
(398,275,cs)
);
}
);
width = 510;
}
);
unicode = 48;
},
{
glyphname = one;
layers = (
{
layerId = master01;
shapes = (
{
closed = 1;
nodes = (
(337,532,ls),
(337,549,o),
(327,559,o),
(319,563,c),
(302,563,o),
(100,519,o),
(100,518,cs),
(100,510,o),
(111,466,o),
(126,466,cs),
(259,499,l),
(259,57,l),
(105,33,l),
(105,26,o),
(105,0,o),
(121,0,cs),
(284,4,l),
(445,0,ls),
(461,0,o),
(461,26,o),
(461,33,c),
(337,57,l,{
name = hr00;
})
);
}
);
width = 510;
}
);
unicode = 49;
},
{
glyphname = two;
layers = (
{
layerId = master01;
shapes = (
{
closed = 1;
nodes = (
(427,525,o),
(329,563,o),
(235,563,cs),
(175,563,o),
(110,547,o),
(70,524,c),
(71,510,o),
(98,398,o),
(99,398,cs),
(106,398,o),
(139,402,o),
(139,414,c),
(135,487,l),
(163,503,o),
(199,513,o),
(233,513,cs),
(290,513,o),
(343,486,o),
(343,410,cs),
(343,317,o),
(272,249,o),
(213,196,cs),
(29,32,l),
(52,0,l),
(438,0,ls),
(455,0,o),
(460,5,o),
(462,14,c),
(462,31,o),
(440,158,o),
(439,158,cs),
(431,158,o),
(398,158,o),
(398,142,cs),
(398,64,l),
(111,39,l),
(110,43,l),
(225,133,ls),
(330,215,o),
(427,297,o),
(427,415,cs,{
name = hr00;
})
);
}
);
width = 510;
}
);
unicode = 50;
},
{
glyphname = three;
layers = (
{
layerId = master01;
shapes = (
{
closed = 1;
nodes = (
(308,237,o),
(374,176,o),
(374,105,cs),
(374,22,o),
(303,-19,o),
(226,-19,cs),
(191,-19,o),
(154,-10,o),
(121,8,c),
(124,81,ls),
(124,94,o),
(91,97,o),
(85,97,cs),
(83,97,o),
(57,-15,o),
(56,-29,c),
(104,-52,o),
(176,-68,o),
(245,-68,cs),
(351,-68,o),
(454,-3,o),
(454,107,cs),
(454,177,o),
(397,246,o),
(295,264,c),
(368,291,o),
(427,348,o),
(427,418,cs,{
name = hr01;
}),
(427,524,o),
(334,563,o),
(245,563,cs),
(187,563,o),
(126,547,o),
(83,524,c),
(85,510,o),
(111,398,o),
(112,398,cs),
(119,398,o),
(152,402,o),
(152,414,cs),
(148,487,l),
(174,503,o),
(208,513,o),
(241,513,cs),
(308,513,o),
(345,466,o),
(345,415,cs),
(345,354,o),
(295,286,o),
(184,272,c),
(190,238,l)
);
}
);
width = 510;
}
);
unicode = 51;
},
{
glyphname = four;
layers = (
{
layerId = master01;
shapes = (
{
closed = 1;
nodes = (
(397,89,l),
(496,89,l),
(496,134,l),
(397,134,l),
(397,357,ls),
(397,374,o),
(387,384,o),
(379,388,c),
(362,388,o),
(323,380,o),
(323,379,c),
(323,134,l),
(84,134,l),
(291,594,l),
(218,616,l),
(56,218,ls),
(30,155,o),
(15,112,o),
(15,105,cs),
(15,91,o),
(26,89,o),
(43,89,cs),
(323,89,l),
(323,0,l),
(208,-23,l),
(208,-30,o),
(208,-56,o),
(223,-56,cs),
(223,-56,o),
(224,-56,o),
(359,-52,c),
(476,-56,o),
(477,-56,o),
(477,-56,cs),
(492,-56,o),
(492,-30,o),
(492,-23,c),
(397,0,l,{
name = hr00;
})
);
}
);
width = 510;
}
);
unicode = 52;
},
{
glyphname = five;
layers = (
{
layerId = master01;
shapes = (
{
closed = 1;
nodes = (
(135,232,l),
(152,235,o),
(174,237,o),
(191,237,cs),
(307,237,o),
(373,176,o),
(373,105,cs),
(373,22,o),
(303,-19,o),
(226,-19,cs),
(191,-19,o),
(153,-10,o),
(120,8,c),
(124,81,l),
(124,94,o),
(91,97,o),
(84,97,cs),
(83,97,o),
(56,-15,o),
(55,-29,c),
(104,-52,o),
(175,-68,o),
(245,-68,cs),
(350,-68,o),
(454,-3,o),
(454,107,cs),
(454,201,o),
(382,289,o),
(187,289,cs),
(177,289,o),
(168,289,o),
(158,288,c),
(180,493,l),
(378,493,l),
(378,415,ls),
(378,399,o),
(411,399,o),
(418,399,cs),
(420,399,o),
(442,526,o),
(442,543,c),
(440,555,o),
(432,557,o),
(415,557,c),
(116,532,l),
(106,255,l,{
name = hr00;
})
);
}
);
width = 510;
}
);
unicode = 53;
},
{
glyphname = six;
layers = (
{
layerId = master01;
shapes = (
{
closed = 1;
nodes = (
(202,562,o),
(49,427,o),
(49,220,cs),
(49,58,o),
(155,-12,o),
(260,-12,cs),
(366,-12,o),
(468,56,o),
(468,175,cs),
(468,293,o),
(374,350,o),
(268,350,cs),
(153,350,l),
(183,433,o),
(256,526,o),
(421,632,c),
(394,673,l,{
name = hr00;
})
);
},
{
closed = 1;
nodes = (
(328,302,o),
(383,275,o),
(383,174,cs),
(383,87,o),
(324,40,o),
(257,40,cs),
(186,40,o),
(134,112,o),
(134,233,cs),
(134,250,o),
(135,268,o),
(137,287,c),
(176,295,o),
(217,302,o),
(256,302,cs)
);
}
);
width = 510;
}
);
unicode = 54;
},
{
glyphname = seven;
layers = (
{
layerId = master01;
shapes = (
{
closed = 1;
nodes = (
(469,546,l),
(441,564,l),
(423,537,l),
(81,557,l,{
name = hr01;
}),
(64,557,o),
(56,555,o),
(54,543,c),
(54,526,o),
(76,399,o),
(78,399,cs),
(85,399,o),
(118,399,o),
(118,415,cs),
(118,493,l),
(397,493,l),
(133,-49,l),
(213,-68,l)
);
}
);
width = 510;
}
);
unicode = 55;
},
{
glyphname = eight;
layers = (
{
layerId = master01;
shapes = (
{
closed = 1;
nodes = (
(47,62,o),
(130,-12,o),
(252,-12,cs),
(387,-12,o),
(465,65,o),
(465,155,cs),
(465,249,o),
(395,304,o),
(328,345,c),
(408,391,o),
(441,462,o),
(441,514,cs,{
name = hr01;
}),
(441,601,o),
(366,668,o),
(258,668,cs),
(138,668,o),
(69,599,o),
(69,517,cs),
(69,439,o),
(114,385,o),
(178,346,c),
(84,296,o),
(47,215,o),
(47,159,cs)
);
},
{
closed = 1;
nodes = (
(340,247,o),
(380,210,o),
(380,152,cs),
(380,80,o),
(320,37,o),
(253,37,cs),
(169,37,o),
(131,96,o),
(131,164,cs),
(131,213,o),
(161,277,o),
(218,321,c),
(302,270,ls)
);
},
{
closed = 1;
nodes = (
(148,577,o),
(187,619,o),
(257,619,cs),
(328,619,o),
(361,568,o),
(361,509,cs),
(361,465,o),
(340,408,o),
(290,368,c),
(236,400,ls),
(191,427,o),
(148,466,o),
(148,517,cs,{
name = hr03;
})
);
}
);
width = 510;
}
);
unicode = 56;
},
{
glyphname = nine;
layers = (
{
layerId = master01;
shapes = (
{
closed = 1;
nodes = (
(132,-133,l),
(303,-22,o),
(468,113,o),
(468,326,cs),
(468,491,o),
(360,563,o),
(254,563,cs),
(150,563,o),
(48,493,o),
(48,377,cs),
(48,256,o),
(143,198,o),
(251,198,cs),
(358,198,l),
(329,116,o),
(259,21,o),
(102,-97,c,{
name = hr00;
})
);
},
{
closed = 1;
nodes = (
(133,466,o),
(189,512,o),
(257,512,cs),
(334,512,o),
(378,440,o),
(378,317,cs),
(378,297,o),
(376,277,o),
(373,257,c),
(332,245,o),
(296,240,o),
(267,240,cs),
(167,240,o),
(133,299,o),
(133,377,cs)
);
}
);
width = 510;
}
);
unicode = 57;
},
{
glyphname = zero.lf;
layers = (
{
layerId = master01;
shapes = (
{
closed = 1;
nodes = (
(539,555,o),
(427,662,o),
(290,662,cs),
(146,662,o),
(29,546,o),
(29,327,cs),
(29,98,o),
(135,-12,o),
(276,-12,cs),
(430,-12,o),
(541,101,o),
(541,337,c,{
name = hr00;
})
);
},
{
closed = 1;
nodes = (
(458,131,o),
(398,40,o),
(285,40,cs),
(172,40,o),
(112,131,o),
(112,325,cs),
(112,519,o),
(172,609,o),
(285,609,cs),
(398,609,o),
(458,519,o),
(458,325,c)
);
}
);
width = 570;
}
);
},
{
glyphname = one.lf;
layers = (
{
layerId = master01;
shapes = (
{
closed = 1;
nodes = (
(351,631,ls),
(351,648,o),
(341,658,o),
(333,662,c),
(313,662,o),
(69,607,o),
(69,606,cs),
(69,598,o),
(80,554,o),
(95,554,cs),
(273,598,l),
(273,63,l),
(84,33,l),
(84,26,o),
(84,0,o),
(100,0,cs),
(298,4,l),
(479,0,ls),
(495,0,o),
(495,26,o),
(495,33,c),
(351,63,l,{
name = hr00;
})
);
}
);
width = 570;
}
);
},
{
glyphname = two.lf;
layers = (
{
layerId = master01;
shapes = (
{
closed = 1;
nodes = (
(487,617,o),
(373,662,o),
(263,662,cs),
(193,662,o),
(117,646,o),
(70,623,c),
(71,609,o),
(98,497,o),
(99,497,cs),
(106,497,o),
(139,501,o),
(139,513,c),
(135,586,l),
(171,602,o),
(217,612,o),
(261,612,cs),
(335,612,o),
(403,579,o),
(403,488,cs),
(403,375,o),
(318,293,o),
(248,229,cs),
(29,32,l),
(52,0,l),
(498,0,ls),
(515,0,o),
(520,5,o),
(522,14,c),
(522,31,o),
(500,158,o),
(499,158,cs),
(491,158,o),
(458,158,o),
(458,142,cs),
(458,64,l),
(101,38,l),
(252,156,ls),
(374,252,o),
(487,349,o),
(487,488,cs,{
name = hr00;
})
);
}
);
width = 570;
}
);
},
{
glyphname = three.lf;
layers = (
{
layerId = master01;
shapes = (
{
closed = 1;
nodes = (
(344,313,o),
(424,248,o),
(424,171,cs),
(424,81,o),
(342,37,o),
(253,37,cs),
(212,37,o),
(169,46,o),
(131,64,c),
(134,137,ls),
(134,150,o),
(101,153,o),
(95,153,cs),
(93,153,o),
(67,41,o),
(66,27,c),
(119,4,o),
(198,-12,o),
(274,-12,cs),
(391,-12,o),
(504,58,o),
(504,175,cs),
(504,250,o),
(447,323,o),
(345,342,c),
(418,371,o),
(477,433,o),
(477,508,cs,{
name = hr01;
}),
(477,621,o),
(373,662,o),
(274,662,cs),
(209,662,o),
(141,646,o),
(93,623,c),
(95,609,o),
(121,497,o),
(122,497,cs),
(129,497,o),
(162,501,o),
(162,513,cs),
(158,586,l),
(189,602,o),
(230,612,o),
(270,612,cs),
(350,612,o),
(395,569,o),
(395,506,cs),
(395,429,o),
(333,366,o),
(194,351,c),
(200,314,l)
);
}
);
width = 570;
}
);
},
{
glyphname = four.lf;
layers = (
{
layerId = master01;
shapes = (
{
closed = 1;
nodes = (
(437,145,l),
(546,145,l),
(546,190,l),
(437,190,l),
(437,413,ls),
(437,430,o),
(427,440,o),
(419,444,c),
(402,444,o),
(363,436,o),
(363,435,c),
(363,190,l),
(114,190,l),
(321,650,l),
(248,672,l),
(86,274,ls),
(60,211,o),
(45,168,o),
(45,161,cs),
(45,147,o),
(56,145,o),
(73,145,cs),
(363,145,l),
(363,56,l),
(248,33,l),
(248,26,o),
(248,0,o),
(264,0,cs),
(399,4,l),
(516,0,ls),
(532,0,o),
(532,26,o),
(532,33,c),
(437,56,l,{
name = hr00;
})
);
}
);
width = 570;
}
);
},
{
glyphname = five.lf;
layers = (
{
layerId = master01;
shapes = (
{
closed = 1;
nodes = (
(143,338,l),
(170,341,o),
(203,343,o),
(228,343,cs),
(360,343,o),
(431,271,o),
(431,186,cs),
(431,86,o),
(347,37,o),
(255,37,cs),
(213,37,o),
(168,46,o),
(128,64,c),
(132,137,ls),
(133,150,o),
(98,153,o),
(92,153,cs),
(91,153,o),
(64,41,o),
(63,27,c),
(119,4,o),
(199,-12,o),
(278,-12,cs),
(395,-12,o),
(512,62,o),
(512,188,cs),
(512,295,o),
(437,395,o),
(216,395,cs),
(200,395,o),
(183,394,o),
(166,394,c),
(188,610,l),
(436,598,l),
(436,520,ls),
(436,504,o),
(469,504,o),
(476,504,cs),
(478,504,o),
(500,631,o),
(500,648,c),
(498,660,o),
(490,662,o),
(473,662,c,{
name = hr01;
}),
(124,650,l),
(114,361,l)
);
}
);
width = 570;
}
);
},
{
glyphname = six.lf;
layers = (
{
layerId = master01;
shapes = (
{
closed = 1;
nodes = (
(238,585,o),
(59,441,o),
(59,220,cs),
(59,58,o),
(175,-12,o),
(290,-12,cs),
(406,-12,o),
(518,62,o),
(518,190,cs),
(518,318,o),
(416,380,o),
(300,380,cs),
(177,380,l),
(218,464,o),
(307,557,o),
(491,662,c),
(464,703,l,{
name = hr00;
})
);
},
{
closed = 1;
nodes = (
(371,332,o),
(433,304,o),
(433,190,cs),
(433,93,o),
(365,40,o),
(287,40,cs),
(205,40,o),
(144,112,o),
(144,233,cs),
(144,261,o),
(146,290,o),
(154,320,c),
(201,326,o),
(248,332,o),
(291,332,cs)
);
}
);
width = 570;
}
);
},
{
glyphname = seven.lf;
layers = (
{
layerId = master01;
shapes = (
{
closed = 1;
nodes = (
(525,657,l),
(497,675,l,{
name = hr01;
}),
(480,650,l),
(99,662,ls),
(82,662,o),
(74,660,o),
(72,648,c),
(72,631,o),
(94,504,o),
(96,504,cs),
(103,504,o),
(136,504,o),
(136,520,cs),
(136,598,l),
(453,606,l),
(144,7,l),
(224,-12,l)
);
}
);
width = 570;
}
);
},
{
glyphname = eight.lf;
layers = (
{
layerId = master01;
shapes = (
{
closed = 1;
nodes = (
(57,62,o),
(148,-12,o),
(282,-12,cs),
(430,-12,o),
(515,65,o),
(515,155,cs),
(515,243,o),
(446,297,o),
(375,337,c),
(457,382,o),
(491,455,o),
(491,502,cs,{
name = hr01;
}),
(491,594,o),
(408,661,o),
(288,661,cs),
(155,661,o),
(79,592,o),
(79,510,cs),
(79,437,o),
(123,384,o),
(187,345,c),
(93,296,o),
(57,215,o),
(57,159,cs)
);
},
{
closed = 1;
nodes = (
(386,251,o),
(430,211,o),
(430,152,cs),
(430,80,o),
(360,37,o),
(283,37,cs),
(185,37,o),
(141,96,o),
(141,164,cs),
(141,213,o),
(172,280,o),
(230,324,c),
(342,272,ls)
);
},
{
closed = 1;
nodes = (
(158,565,o),
(204,607,o),
(287,607,cs),
(372,607,o),
(411,556,o),
(411,502,cs),
(411,457,o),
(389,397,o),
(335,357,cs),
(334,356,l),
(257,388,ls),
(204,410,o),
(158,454,o),
(158,505,cs,{
name = hr03;
})
);
}
);
width = 570;
}
);
},
{
glyphname = nine.lf;
layers = (
{
layerId = master01;
shapes = (
{
closed = 1;
nodes = (
(144,-54,l),
(334,62,o),
(518,203,o),
(518,425,cs),
(518,590,o),
(400,662,o),
(284,662,cs),
(146,662,o),
(58,587,o),
(58,468,cs),
(58,338,o),
(164,277,o),
(285,277,cs),
(401,277,l),
(365,194,o),
(285,100,o),
(112,-18,c,{
name = hr00;
})
);
},
{
closed = 1;
nodes = (
(143,565,o),
(208,611,o),
(287,611,cs),
(377,611,o),
(428,539,o),
(428,413,cs),
(428,389,o),
(426,365,o),
(421,339,c),
(373,328,o),
(333,323,o),
(299,323,cs),
(183,323,o),
(143,385,o),
(143,476,cs)
);
}
);
width = 570;
}
);
},
{
glyphname = fraction;
layers = (
{
layerId = master01;
shapes = (
{
closed = 1;
nodes = (
(-1,-208,l),
(365,672,l),
(306,672,l),
(-60,-208,l,{
name = hr00;
})
);
}
);
width = 305;
}
);
unicode = 8260;
},
{
glyphname = zeroinferior;
layers = (
{
layerId = master01;
shapes = (
{
closed = 1;
nodes = (
(372,262,o),
(297,331,o),
(206,331,cs),
(111,331,o),
(34,256,o),
(34,113,cs),
(34,-36,o),
(104,-108,o),
(197,-108,cs),
(298,-108,o),
(372,-34,o),
(372,119,cs,{
name = hr00;
})
);
},
{
closed = 1;
nodes = (
(306,-7,o),
(270,-63,o),
(203,-63,cs),
(136,-63,o),
(100,-7,o),
(100,111,cs),
(100,230,o),
(136,286,o),
(203,286,cs),
(270,286,o),
(306,230,o),
(306,111,cs)
);
}
);
width = 410;
}
);
unicode = 8320;
},
{
glyphname = oneinferior;
layers = (
{
layerId = master01;
shapes = (
{
closed = 1;
nodes = (
(251,305,l),
(251,319,o),
(243,328,o),
(235,331,c),
(221,331,o),
(59,291,o),
(59,290,cs),
(59,284,o),
(70,251,o),
(85,251,c),
(188,277,l),
(188,-49,l),
(69,-69,l),
(69,-75,o),
(69,-100,o),
(86,-100,c),
(211,-97,l),
(325,-100,l),
(343,-100,o),
(343,-75,o),
(343,-69,c),
(251,-49,l,{
name = hr00;
})
);
}
);
width = 410;
}
);
unicode = 8321;
},
{
glyphname = twoinferior;
layers = (
{
layerId = master01;
shapes = (
{
closed = 1;
nodes = (
(338,300,o),
(261,331,o),
(189,331,cs),
(143,331,o),
(93,320,o),
(59,303,c),
(61,286,o),
(79,215,o),
(79,215,c),
(86,215,o),
(117,220,o),
(117,230,cs),
(115,273,l),
(137,283,o),
(163,288,o),
(188,288,cs),
(231,288,o),
(271,268,o),
(271,215,cs),
(271,146,o),
(218,94,o),
(174,55,cs),
(32,-73,l),
(52,-100,l),
(338,-100,ls),
(355,-100,o),
(358,-95,o),
(359,-86,c),
(359,-75,o),
(339,12,o),
(338,12,cs),
(332,12,o),
(306,12,o),
(306,-5,cs),
(306,-47,l),
(114,-62,l),
(112,-57,l),
(186,-1,ls),
(263,58,o),
(338,127,o),
(338,215,cs,{
name = hr00;
})
);
}
);
width = 410;
}
);
unicode = 8322;
},
{
glyphname = threeinferior;
layers = (
{
layerId = master01;
shapes = (
{
closed = 1;
nodes = (
(234,98,o),
(284,60,o),
(284,14,cs),
(284,-39,o),
(238,-65,o),
(193,-65,cs),
(163,-65,o),
(134,-60,o),
(112,-50,c),
(114,-7,l),
(114,5,o),
(88,8,o),
(83,8,cs),
(80,8,o),
(58,-70,o),
(57,-80,c),
(94,-96,o),
(148,-108,o),
(196,-108,cs),
(274,-108,o),
(349,-61,o),
(349,17,cs),
(349,62,o),
(317,107,o),
(259,124,c),
(299,146,o),
(331,183,o),
(331,227,cs,{
name = hr01;
}),
(331,303,o),
(261,331,o),
(196,331,cs),
(154,331,o),
(108,320,o),
(73,303,c),
(75,295,o),
(93,215,o),
(93,215,c),
(100,215,o),
(132,220,o),
(132,230,c),
(130,274,l),
(147,282,o),
(170,288,o),
(193,288,cs),
(240,288,o),
(266,262,o),
(266,226,cs),
(266,181,o),
(226,143,o),
(137,133,c),
(143,99,l)
);
}
);
width = 410;
}
);
unicode = 8323;
},
{
glyphname = fourinferior;
layers = (
{
layerId = master01;
shapes = (
{
closed = 1;
nodes = (
(306,-8,l),
(375,-8,l),
(375,32,l),
(306,32,l),
(306,167,l),
(306,180,o),
(306,188,o),
(297,193,c),
(283,193,o),
(246,186,o),
(246,186,c),
(246,32,l),
(104,32,l),
(235,321,l),
(175,339,l),
(54,39,o),
(44,11,o),
(44,8,cs),
(44,-5,o),
(54,-8,o),
(68,-8,c),
(246,-8,l),
(246,-55,l),
(173,-69,l),
(173,-75,o),
(173,-100,o),
(190,-100,c),
(275,-97,l),
(349,-100,l),
(366,-99,o),
(366,-75,o),
(366,-69,c),
(306,-55,l,{
name = hr00;
})
);
}
);
width = 410;
}
);
unicode = 8324;
},
{
glyphname = fiveinferior;
layers = (
{
layerId = master01;
shapes = (
{
closed = 1;
nodes = (
(111,114,l),
(128,116,o),
(150,117,o),
(167,117,cs),
(246,117,o),
(288,74,o),
(288,24,cs),
(288,-36,o),
(239,-65,o),
(184,-65,cs),
(160,-65,o),
(133,-60,o),
(110,-50,c),
(113,-7,l),
(113,5,o),
(86,8,o),
(81,8,cs),
(79,8,o),
(56,-71,o),
(55,-81,c),
(93,-96,o),
(135,-108,o),
(199,-108,cs),
(282,-108,o),
(354,-59,o),
(354,25,cs),
(354,96,o),
(304,162,o),
(159,162,c),
(151,162,o),
(139,162,o),
(134,161,c),
(148,279,l),
(291,271,l),
(291,227,l),
(291,212,o),
(319,212,o),
(323,212,cs),
(326,212,o),
(346,298,o),
(346,309,c),
(344,321,o),
(336,323,o),
(322,323,c,{
name = hr01;
}),
(94,316,l),
(88,133,l)
);
}
);
width = 410;
}
);
unicode = 8325;
},
{
glyphname = sixinferior;
layers = (
{
layerId = master01;
shapes = (
{
closed = 1;
nodes = (
(162,281,o),
(53,187,o),
(53,45,cs),
(53,-61,o),
(131,-108,o),
(206,-108,cs),
(284,-108,o),
(358,-59,o),
(358,26,cs),
(358,111,o),
(289,152,o),
(212,152,c),
(141,152,l),
(167,203,o),
(219,262,o),
(322,325,c),
(300,359,l,{
name = hr00;
})
);
},
{
closed = 1;
nodes = (
(253,110,o),
(289,94,o),
(289,26,cs),
(289,-32,o),
(249,-63,o),
(205,-63,cs),
(156,-63,o),
(121,-19,o),
(121,53,cs),
(121,70,o),
(121,85,o),
(125,104,c),
(152,108,o),
(182,110,o),
(207,110,cs)
);
}
);
width = 410;
}
);
unicode = 8326;
},
{
glyphname = seveninferior;
layers = (
{
layerId = master01;
shapes = (
{
closed = 1;
nodes = (
(363,316,l),
(335,335,l,{
name = hr01;
}),
(323,316,l),
(85,323,l),
(70,323,o),
(63,321,o),
(61,309,c),
(61,298,o),
(82,212,o),
(83,212,cs),
(89,212,o),
(115,212,o),
(115,227,c),
(115,271,l),
(298,276,l),
(104,-93,l),
(169,-109,l)
);
}
);
width = 410;
}
);
unicode = 8327;
},
{
glyphname = eightinferior;
layers = (
{
layerId = master01;
shapes = (
{
closed = 1;
nodes = (
(51,-58,o),
(109,-108,o),
(199,-108,cs),
(295,-108,o),
(355,-56,o),
(355,4,cs),
(355,59,o),
(315,93,o),
(272,119,c),
(321,149,o),
(340,196,o),
(340,225,cs,{
name = hr01;
}),
(340,286,o),
(284,331,o),
(206,331,cs),
(116,331,o),
(66,283,o),
(66,226,cs),
(66,183,o),
(93,148,o),
(130,124,c),
(74,91,o),
(51,41,o),
(51,6,cs)
);
},
{
closed = 1;
nodes = (
(271,56,o),
(287,36,o),
(287,2,cs),
(287,-43,o),
(246,-67,o),
(205,-67,cs),
(162,-67,o),
(119,-42,o),
(119,10,cs),
(119,39,o),
(135,78,o),
(169,105,c),
(236,73,ls)
);
},
{
closed = 1;
nodes = (
(130,261,o),
(156,285,o),
(205,285,cs),
(253,285,o),
(276,255,o),
(276,224,cs),
(276,197,o),
(262,160,o),
(233,137,c),
(187,159,ls),
(156,174,o),
(130,195,o),
(130,225,cs)
);
}
);
width = 410;
}
);
unicode = 8328;
},
{
glyphname = nineinferior;
layers = (
{
layerId = master01;
shapes = (
{
closed = 1;
nodes = (
(120,260,o),
(158,287,o),
(205,287,cs),
(257,287,o),
(286,243,o),
(286,167,cs),
(286,154,o),
(286,141,o),
(284,125,c),
(254,119,o),
(231,116,o),
(211,116,cs),
(143,116,o),
(120,153,o),
(120,207,cs,{
name = hr00;
})
);
},
{
closed = 1;
nodes = (
(246,24,o),
(192,-42,o),
(89,-105,c),
(111,-139,l),
(249,-61,o),
(358,33,o),
(358,175,c),
(358,283,o),
(279,331,o),
(203,331,cs),
(111,331,o),
(53,282,o),
(53,202,cs),
(53,116,o),
(123,75,o),
(203,75,c),
(272,75,l)
);
}
);
width = 410;
}
);
unicode = 8329;
},
{
glyphname = period;
layers = (
{
layerId = master01;
shapes = (
{
closed = 1;
nodes = (
(92,121,o),
(56,114,o),
(56,114,c),
(56,114,o),
(48,80,o),
(48,49,cs),
(48,18,o),
(55,-12,o),
(85,-12,cs),
(107,-12,o),
(142,-3,o),
(142,-3,c),
(142,-3,o),
(149,30,o),
(149,59,cs),
(149,92,o),
(140,121,o),
(113,121,cs,{
name = hr00;
})
);
}
);
width = 197;
}
);
unicode = 46;
},
{
glyphname = comma;
layers = (
{
layerId = master01;
shapes = (
{
closed = 1;
nodes = (
(86,121,o),
(56,114,o),
(56,114,c),
(56,114,o),
(48,80,o),
(48,49,cs),
(48,18,o),
(55,-12,o),
(85,-12,cs),
(90,-12,o),
(95,-12,o),
(101,-11,c),
(101,-15,ls),
(101,-59,o),
(71,-97,o),
(19,-113,c),
(28,-142,l),
(108,-126,o),
(161,-58,o),
(161,12,cs),
(161,72,o),
(144,121,o),
(115,121,cs,{
name = hr00;
})
);
}
);
width = 197;
}
);
unicode = 44;
},
{
glyphname = ellipsis;
layers = (
{
layerId = master01;
shapes = (
{
closed = 1;
nodes = (
(92,121,o),
(56,114,o),
(56,114,c),
(56,114,o),
(48,80,o),
(48,49,cs),
(48,18,o),
(55,-12,o),
(85,-12,cs),
(107,-12,o),
(142,-3,o),
(142,-3,c),
(142,-3,o),
(149,30,o),
(149,59,cs),
(149,92,o),
(140,121,o),
(113,121,cs,{
name = hr00;
})
);
},
{
closed = 1;
nodes = (
(289,121,o),
(253,114,o),
(253,114,c),
(253,114,o),
(245,80,o),
(245,49,cs),
(245,18,o),
(252,-12,o),
(282,-12,cs),
(304,-12,o),
(339,-3,o),
(339,-3,c),
(339,-3,o),
(346,30,o),
(346,59,cs),
(346,92,o),
(337,121,o),
(310,121,cs)
);
},
{
closed = 1;
nodes = (
(486,121,o),
(450,114,o),
(450,114,c),
(450,114,o),
(442,80,o),
(442,49,cs),
(442,18,o),
(449,-12,o),
(479,-12,cs),
(501,-12,o),
(536,-3,o),
(536,-3,c),
(536,-3,o),
(543,30,o),
(543,59,cs),
(543,92,o),
(534,121,o),
(507,121,cs)
);
}
);
width = 591;
}
);
unicode = 8230;
},
{
glyphname = exclam;
layers = (
{
layerId = master01;
shapes = (
{
closed = 1;
nodes = (
(77,433,l),
(104,172,l),
(137,172,l),
(179,695,l),
(123,695,l,{
name = hr00;
})
);
},
{
closed = 1;
nodes = (
(117,95,o),
(81,89,o),
(81,89,c),
(81,89,o),
(73,62,o),
(73,37,cs),
(73,12,o),
(80,-12,o),
(110,-12,cs),
(132,-12,o),
(167,-4,o),
(167,-4,c),
(167,-4,o),
(174,22,o),
(174,45,cs),
(174,72,o),
(165,95,o),
(138,95,cs)
);
}
);
width = 257;
}
);
unicode = 33;
},
{
glyphname = exclamdown;
layers = (
{
layerId = master01;
shapes = (
{
closed = 1;
nodes = (
(180,23,l),
(153,284,l),
(120,284,l),
(78,-239,l),
(134,-239,l,{
name = hr00;
})
);
},
{
closed = 1;
nodes = (
(140,361,o),
(176,367,o),
(176,367,c),
(176,367,o),
(184,394,o),
(184,419,cs),
(184,444,o),
(177,468,o),
(147,468,cs),
(125,468,o),
(90,460,o),
(90,460,c),
(90,460,o),
(83,434,o),
(83,411,cs),
(83,384,o),
(92,361,o),
(119,361,cs)
);
}
);
width = 257;
}
);
unicode = 161;
},
{
glyphname = question;
layers = (
{
layerId = master01;
shapes = (
{
closed = 1;
nodes = (
(87,502,o),
(121,502,o),
(121,516,cs),
(121,617,l),
(135,620,o),
(151,621,o),
(168,621,cs),
(235,621,o),
(309,594,o),
(311,522,c),
(296,440,o),
(162,332,o),
(160,283,c),
(160,282,o),
(161,244,o),
(168,184,c),
(202,184,l),
(202,234,ls),
(202,300,o),
(376,407,o),
(376,527,cs),
(376,618,o),
(287,671,o),
(169,671,cs),
(132,671,o),
(93,666,o),
(53,656,c),
(79,502,l,{
name = hr00;
})
);
},
{
closed = 1;
nodes = (
(177,95,o),
(141,89,o),
(141,89,c),
(141,89,o),
(133,62,o),
(133,37,cs),
(133,12,o),
(140,-12,o),
(170,-12,cs),
(192,-12,o),
(227,-4,o),
(227,-4,c),
(227,-4,o),
(234,22,o),
(234,45,cs),
(234,72,o),
(225,95,o),
(198,95,cs)
);
}
);
width = 430;
}
);
unicode = 63;
},
{
glyphname = questiondown;
layers = (
{
layerId = master01;
shapes = (
{
closed = 1;
nodes = (
(342,-46,o),
(308,-46,o),
(308,-60,cs),
(308,-161,l),
(294,-164,o),
(278,-165,o),
(261,-165,cs),
(194,-165,o),
(120,-138,o),
(118,-66,c),
(133,16,o),
(267,124,o),
(269,173,c),
(269,174,o),
(268,212,o),
(261,272,c),
(227,272,l),
(227,222,ls),
(227,156,o),
(53,49,o),
(53,-71,cs),
(53,-162,o),
(142,-215,o),
(260,-215,cs),
(297,-215,o),
(336,-210,o),
(376,-200,c),
(350,-46,l,{
name = hr00;
})
);
},
{
closed = 1;
nodes = (
(252,361,o),
(288,367,o),
(288,367,c),
(288,367,o),
(296,394,o),
(296,419,cs),
(296,444,o),
(289,468,o),
(259,468,cs),
(237,468,o),
(202,460,o),
(202,460,c),
(202,460,o),
(195,434,o),
(195,411,cs),
(195,384,o),
(204,361,o),
(231,361,cs)
);
}
);
width = 430;
}
);
unicode = 191;
},
{
glyphname = bullet;
layers = (
{
layerId = master01;
shapes = (
{
closed = 1;
nodes = (
(116,347,o),
(62,339,o),
(62,339,c),
(62,339,o),
(50,298,o),
(50,260,cs),
(50,222,o),
(60,186,o),
(105,186,cs),
(138,186,o),
(191,197,o),
(191,197,c),
(191,197,o),
(201,237,o),
(201,271,cs),
(201,312,o),
(188,347,o),
(147,347,cs,{
name = hr00;
})
);
}
);
width = 251;
}
);
unicode = 8226;
},
{
glyphname = asterisk;
layers = (
{
layerId = master01;
shapes = (
{
closed = 1;
nodes = (
(249,575,o),
(263,648,o),
(263,700,cs),
(263,708,o),
(242,712,o),
(223,712,cs),
(204,712,o),
(183,708,o),
(183,700,cs),
(183,647,o),
(199,575,o),
(209,551,c),
(239,551,l)
);
},
{
closed = 1;
nodes = (
(183,562,o),
(86,614,o),
(68,614,cs),
(51,614,o),
(39,562,o),
(39,546,cs),
(39,526,o),
(166,516,o),
(193,516,c),
(203,545,l)
);
},
{
closed = 1;
nodes = (
(175,495,o),
(121,444,o),
(90,402,cs),
(89,401,o),
(89,400,o),
(89,399,cs),
(89,385,o),
(132,353,o),
(150,353,cs),
(152,353,o),
(154,354,o),
(155,355,cs),
(186,398,o),
(216,466,o),
(222,490,c),
(197,509,l)
);
},
{
closed = 1;
nodes = (
(236,467,o),
(268,400,o),
(298,357,cs),
(299,356,o),
(301,355,o),
(303,355,cs),
(319,355,o),
(364,387,o),
(364,402,cs),
(364,403,o),
(363,404,o),
(363,405,cs),
(332,447,o),
(276,497,o),
(255,510,c),
(230,492,l)
);
},
{
closed = 1;
nodes = (
(284,519,o),
(411,529,o),
(411,549,cs),
(411,565,o),
(399,617,o),
(382,617,cs,{
name = hr01;
}),
(364,617,o),
(267,565,o),
(247,548,c),
(257,519,l)
);
}
);
width = 449;
}
);
unicode = 42;
},
{
glyphname = exclamsmall;
layers = (
{
layerId = master01;
shapes = (
{
closed = 1;
nodes = (
(85,350,l),
(104,161,l),
(142,161,l),
(172,539,l),
(111,539,l,{
name = hr00;
})
);
},
{
closed = 1;
nodes = (
(117,95,o),
(81,89,o),
(81,89,c),
(81,89,o),
(73,62,o),
(73,37,cs),
(73,12,o),
(80,-12,o),
(110,-12,cs),
(132,-12,o),
(167,-4,o),
(167,-4,c),
(167,-4,o),
(174,22,o),
(174,45,cs),
(174,72,o),
(165,95,o),
(138,95,cs)
);
}
);
width = 257;
}
);
},
{
glyphname = numbersign;
layers = (
{
layerId = master01;
shapes = (
{
closed = 1;
nodes = (
(162,330,l),
(126,225,l),
(22,225,l),
(2,168,l),
(106,168,l),
(47,0,l),
(104,0,l),
(163,168,l),
(268,168,l),
(209,0,l),
(266,0,l),
(325,168,l),
(442,168,l),
(462,225,l),
(345,225,l),
(381,330,l),
(488,330,l),
(508,387,l),
(401,387,l),
(460,554,l),
(403,554,l),
(344,387,l),
(239,387,l),
(298,554,l),
(241,554,l),
(182,387,l),
(68,387,l),
(48,330,l,{
name = hr00;
})
);
},
{
closed = 1;
nodes = (
(324,330,l),
(288,225,l),
(183,225,l),
(219,330,l)
);
}
);
width = 510;
}
);
unicode = 35;
},
{
glyphname = questionsmall;
layers = (
{
layerId = master01;
shapes = (
{
closed = 1;
nodes = (
(202,169,ls),
(202,239,o),
(376,307,o),
(376,433,cs),
(376,506,o),
(287,547,o),
(169,547,cs),
(132,547,o),
(93,542,o),
(53,532,c),
(79,399,l),
(87,399,o),
(121,399,o),
(121,413,cs),
(121,493,l),
(135,496,o),
(151,497,o),
(168,497,cs),
(235,497,o),
(309,479,o),
(311,428,c),
(296,337,o),
(162,267,o),
(160,210,c),
(160,209,o),
(160,193,o),
(164,161,c),
(202,161,l,{
name = hr00;
})
);
},
{
closed = 1;
nodes = (
(177,95,o),
(141,89,o),
(141,89,c),
(141,89,o),
(133,62,o),
(133,37,cs),
(133,12,o),
(140,-12,o),
(170,-12,cs),
(192,-12,o),
(227,-4,o),
(227,-4,c),
(227,-4,o),
(234,22,o),
(234,45,cs),
(234,72,o),
(225,95,o),
(198,95,cs)
);
}
);
width = 430;
}
);
},
{
glyphname = slash;
layers = (
{
layerId = master01;
shapes = (
{
closed = 1;
nodes = (
(24,-50,l),
(357,750,l),
(303,750,l),
(-30,-50,l,{
name = hr00;
})
);
}
);
width = 327;
}
);
unicode = 47;
},
{
glyphname = backslash;
layers = (
{
layerId = master01;
shapes = (
{
closed = 1;
nodes = (
(303,-50,l),
(-30,750,l),
(24,750,l),
(357,-50,l,{
name = hr00;
})
);
}
);
width = 327;
}
);
unicode = 92;
},
{
glyphname = hyphen;
layers = (
{
layerId = master01;
shapes = (
{
closed = 1;
nodes = (
(50,279,l),
(55,229,l),
(83,224,o),
(124,220,o),
(167,220,cs),
(232,220,o),
(301,227,o),
(340,246,c),
(333,279,l,{
name = hr00;
})
);
}
);
width = 390;
}
);
unicode = 45;
},
{
glyphname = endash;
layers = (
{
layerId = master01;
shapes = (
{
closed = 1;
nodes = (
(486,225,l),
(486,281,l),
(125,281,l),
(125,225,l,{
name = hr00;
})
);
}
);
width = 591;
}
);
unicode = 8211;
},
{
glyphname = emdash;
layers = (
{
layerId = master01;
shapes = (
{
closed = 1;
nodes = (
(734,225,l),
(734,281,l),
(125,281,l),
(125,225,l,{
name = hr00;
})
);
}
);
width = 839;
}
);
unicode = 8212;
},
{
glyphname = underscore;
layers = (
{
layerId = master01;
shapes = (
{
closed = 1;
nodes = (
(464,-69,l),
(464,-12,l),
(40,-12,l),
(40,-69,l,{
name = hr00;
})
);
}
);
width = 504;
}
);
unicode = 95;
},
{
glyphname = parenleftinferior;
layers = (
{
layerId = master01;
shapes = (
{
closed = 1;
nodes = (
(135,-103,o),
(107,-5,o),
(107,87,cs),
(107,183,o),
(134,296,o),
(201,364,c),
(176,392,l),
(86,323,o),
(39,203,o),
(39,87,cs),
(39,-11,o),
(76,-115,o),
(148,-183,c),
(175,-161,l,{
name = hr00;
})
);
}
);
width = 201;
}
);
unicode = 8333;
},
{
glyphname = parenrightinferior;
layers = (
{
layerId = master01;
shapes = (
{
closed = 1;
nodes = (
(63,312,o),
(91,214,o),
(91,122,cs),
(91,26,o),
(66,-87,o),
(-3,-155,c),
(23,-182,l),
(112,-113,o),
(160,7,o),
(160,122,cs),
(160,220,o),
(123,325,o),
(52,392,c),
(23,370,l,{
name = hr00;
})
);
}
);
width = 201;
}
);
unicode = 8334;
},
{
glyphname = parenleft;
layers = (
{
layerId = master01;
shapes = (
{
closed = 1;
nodes = (
(166,-132,o),
(125,52,o),
(125,214,cs),
(125,382,o),
(166,594,o),
(270,716,c),
(243,728,l),
(112,614,o),
(44,411,o),
(44,214,cs),
(44,44,o),
(97,-131,o),
(198,-241,c),
(229,-237,l,{
name = hr00;
})
);
}
);
width = 247;
}
);
unicode = 40;
},
{
glyphname = parenright;
layers = (
{
layerId = master01;
shapes = (
{
closed = 1;
nodes = (
(81,619,o),
(122,435,o),
(122,273,cs),
(122,105,o),
(81,-107,o),
(-23,-229,c),
(4,-241,l),
(135,-127,o),
(203,76,o),
(203,273,cs),
(203,443,o),
(150,618,o),
(49,728,c),
(18,724,l,{
name = hr00;
})
);
}
);
width = 247;
}
);
unicode = 41;
},
{
glyphname = braceright;
layers = (
{
layerId = master01;
shapes = (
{
closed = 1;
nodes = (
(98,240,o),
(71,226,o),
(71,192,cs),
(71,134,o),
(106,54,o),
(106,-182,c,{
name = hr01;
}),
(86,-182,o),
(-12,-198,o),
(-12,-199,cs),
(-12,-207,o),
(-12,-233,o),
(5,-233,cs),
(160,-233,l),
(166,-174,o),
(174,-119,o),
(174,-65,cs),
(174,25,o),
(164,111,o),
(130,208,c),
(230,235,l),
(230,262,l),
(130,289,l),
(164,386,o),
(174,473,o),
(174,563,cs),
(174,617,o),
(168,672,o),
(160,731,c),
(5,731,ls),
(-12,731,o),
(-12,705,o),
(-12,697,cs),
(-12,696,o),
(86,680,o),
(106,680,c),
(106,444,o),
(71,363,o),
(71,305,cs,{
name = hr02;
}),
(71,272,o),
(98,258,o),
(128,253,c),
(128,245,l)
);
}
);
width = 272;
}
);
unicode = 125;
},
{
glyphname = bracketright;
layers = (
{
layerId = master01;
shapes = (
{
closed = 1;
nodes = (
(164,362,o),
(174,461,o),
(174,563,cs),
(174,617,o),
(168,672,o),
(160,731,c),
(5,731,ls),
(-12,731,o),
(-12,705,o),
(-12,697,cs),
(-12,696,o),
(81,680,o),
(100,680,c),
(100,-182,l),
(81,-182,o),
(-12,-198,o),
(-12,-199,cs),
(-12,-207,o),
(-12,-233,o),
(5,-233,cs),
(160,-233,l),
(166,-174,o),
(174,-119,o),
(174,-65,cs),
(174,37,o),
(164,136,o),
(130,249,c,{
name = hr00;
})
);
}
);
width = 247;
}
);
unicode = 93;
},
{
glyphname = quotedblleft;
layers = (
{
layerId = master01;
shapes = (
{
closed = 1;
nodes = (
(106,476,o),
(136,483,o),
(136,483,c),
(136,483,o),
(144,517,o),
(144,548,cs),
(144,579,o),
(137,609,o),
(107,609,cs),
(102,609,o),
(97,609,o),
(91,608,c),
(91,612,ls),
(91,656,o),
(121,694,o),
(173,710,c),
(164,739,l),
(84,723,o),
(31,655,o),
(31,585,cs),
(31,525,o),
(48,476,o),
(77,476,cs,{
name = hr00;
})
);
},
{
closed = 1;
nodes = (
(282,476,o),
(312,483,o),
(312,483,c),
(312,483,o),
(320,517,o),
(320,548,cs),
(320,579,o),
(313,609,o),
(283,609,cs),
(278,609,o),
(273,609,o),
(267,608,c),
(267,612,ls),
(267,656,o),
(297,694,o),
(349,710,c),
(340,739,l),
(260,723,o),
(207,655,o),
(207,585,cs),
(207,525,o),
(224,476,o),
(253,476,cs)
);
}
);
width = 380;
}
);
unicode = 8220;
},
{
glyphname = quotedblright;
layers = (
{
layerId = master01;
shapes = (
{
closed = 1;
nodes = (
(274,730,o),
(244,723,o),
(244,723,c),
(244,723,o),
(236,689,o),
(236,658,cs),
(236,627,o),
(243,597,o),
(273,597,cs),
(278,597,o),
(283,597,o),
(289,598,c),
(289,594,ls),
(289,550,o),
(259,512,o),
(207,496,c),
(216,467,l),
(296,483,o),
(349,551,o),
(349,621,cs),
(349,681,o),
(332,730,o),
(303,730,cs,{
name = hr00;
})
);
},
{
closed = 1;
nodes = (
(98,730,o),
(68,723,o),
(68,723,c),
(68,723,o),
(60,689,o),
(60,658,cs),
(60,627,o),
(67,597,o),
(97,597,cs),
(102,597,o),
(107,597,o),
(113,598,c),
(113,594,ls),
(113,550,o),
(83,512,o),
(31,496,c),
(40,467,l),
(120,483,o),
(173,551,o),
(173,621,cs),
(173,681,o),
(156,730,o),
(127,730,cs)
);
}
);
width = 380;
}
);
unicode = 8221;
},
{
glyphname = quoteleft;
layers = (
{
layerId = master01;
shapes = (
{
closed = 1;
nodes = (
(106,476,o),
(136,483,o),
(136,483,c),
(136,483,o),
(144,517,o),
(144,548,cs),
(144,579,o),
(137,609,o),
(107,609,cs),
(102,609,o),
(97,609,o),
(91,608,c),
(91,612,ls),
(91,656,o),
(121,694,o),
(173,710,c),
(164,739,l),
(84,723,o),
(31,655,o),
(31,585,cs),
(31,525,o),
(48,476,o),
(77,476,cs,{
name = hr00;
})
);
}
);
width = 204;
}
);
unicode = 8216;
},
{
glyphname = quoteright;
layers = (
{
layerId = master01;
shapes = (
{
closed = 1;
nodes = (
(98,730,o),
(68,723,o),
(68,723,c),
(68,723,o),
(60,689,o),
(60,658,cs),
(60,627,o),
(67,597,o),
(97,597,cs),
(102,597,o),
(107,597,o),
(113,598,c),
(113,594,ls),
(113,550,o),
(83,512,o),
(31,496,c),
(40,467,l),
(120,483,o),
(173,551,o),
(173,621,cs),
(173,681,o),
(156,730,o),
(127,730,cs,{
name = hr00;
})
);
}
);
width = 204;
}
);
unicode = 8217;
},
{
glyphname = guillemotleft;
layers = (
{
layerId = master01;
shapes = (
{
closed = 1;
nodes = (
(218,10,l),
(247,34,l),
(117,227,l),
(247,420,l),
(218,444,l),
(30,241,l),
(30,213,l,{
name = hr00;
})
);
},
{
closed = 1;
nodes = (
(381,10,l),
(410,34,l),
(280,227,l),
(410,420,l),
(381,444,l),
(193,241,l),
(193,213,l)
);
}
);
width = 460;
}
);
unicode = 171;
},
{
glyphname = guillemotright;
layers = (
{
layerId = master01;
shapes = (
{
closed = 1;
nodes = (
(242,444,l),
(213,420,l),
(343,227,l),
(213,34,l),
(242,10,l),
(430,213,l),
(430,241,l,{
name = hr00;
})
);
},
{
closed = 1;
nodes = (
(79,444,l),
(50,420,l),
(180,227,l),
(50,34,l),
(79,10,l),
(267,213,l),
(267,241,l)
);
}
);
width = 460;
}
);
unicode = 187;
},
{
glyphname = guilsinglleft;
layers = (
{
layerId = master01;
shapes = (
{
closed = 1;
nodes = (
(218,10,l),
(247,34,l),
(117,227,l),
(247,420,l),
(218,444,l),
(30,241,l),
(30,213,l,{
name = hr00;
})
);
}
);
width = 297;
}
);
unicode = 8249;
},
{
glyphname = guilsinglright;
layers = (
{
layerId = master01;
shapes = (
{
closed = 1;
nodes = (
(79,444,l),
(50,420,l),
(180,227,l),
(50,34,l),
(79,10,l),
(267,213,l),
(267,241,l,{
name = hr00;
})
);
}
);
width = 297;
}
);
unicode = 8250;
},
{
glyphname = quotedbl;
layers = (
{
layerId = master01;
shapes = (
{
closed = 1;
nodes = (
(112,511,o),
(125,618,o),
(125,699,cs),
(125,707,o),
(106,712,o),
(87,712,cs),
(69,712,o),
(50,707,o),
(50,699,cs),
(50,618,o),
(65,511,o),
(75,474,c),
(102,474,l,{
name = hr00;
})
);
},
{
closed = 1;
nodes = (
(237,511,o),
(250,618,o),
(250,699,cs),
(250,707,o),
(231,712,o),
(212,712,cs),
(194,712,o),
(175,707,o),
(175,699,cs),
(175,618,o),
(190,511,o),
(200,474,c),
(227,474,l)
);
}
);
width = 300;
}
);
unicode = 34;
},
{
glyphname = quotesingle;
layers = (
{
layerId = master01;
shapes = (
{
closed = 1;
nodes = (
(112,511,o),
(125,618,o),
(125,699,cs),
(125,707,o),
(106,712,o),
(87,712,cs),
(69,712,o),
(50,707,o),
(50,699,cs),
(50,618,o),
(65,511,o),
(75,474,c),
(102,474,l,{
name = hr00;
})
);
}
);
width = 175;
}
);
unicode = 39;
},
{
glyphname = florin;
layers = (
{
layerId = master01;
shapes = (
{
closed = 1;
nodes = (
(192,263,l),
(192,-73,ls),
(192,-132,o),
(179,-186,o),
(128,-186,cs),
(101,-186,o),
(70,-177,o),
(48,-163,c),
(30,-202,l),
(55,-219,o),
(97,-231,o),
(132,-231,cs),
(209,-231,o),
(263,-188,o),
(263,-82,cs),
(263,263,l),
(403,263,l),
(403,300,l),
(263,300,l),
(263,465,ls),
(263,516,o),
(280,563,o),
(347,563,cs),
(369,563,o),
(393,553,o),
(410,537,c),
(406,464,l),
(406,452,o),
(439,448,o),
(446,448,cs),
(447,448,o),
(473,560,o),
(475,574,c),
(441,597,o),
(389,613,o),
(343,613,cs),
(254,613,o),
(192,570,o),
(192,464,cs),
(192,300,l),
(97,300,l),
(97,263,l,{
name = hr00;
})
);
}
);
width = 510;
}
);
unicode = 402;
},
{
glyphname = apple;
layers = (
{
layerId = master01;
shapes = (
{
closed = 1;
nodes = (
(559,-88,o),
(563,-88,o),
(566,-88,cs,{
name = hr01;
}),
(574,-88,o),
(581,-89,o),
(589,-89,cs,{
name = hr02;
}),
(615,-89,o),
(617,-70,o),
(634,-60,cs),
(649,-52,o),
(670,-51,o),
(683,-42,cs),
(696,-33,o),
(701,-11,o),
(713,1,cs),
(723,11,o),
(739,12,o),
(748,23,cs),
(759,36,o),
(758,60,o),
(766,74,cs),
(776,91,o),
(800,92,o),
(800,120,cs),
(800,130,o),
(798,141,o),
(798,152,cs),
(798,177,o),
(820,180,o),
(823,200,c),
(823,214,o),
(812,229,o),
(812,244,cs,{
name = hr03;
}),
(812,257,o),
(823,269,o),
(823,283,cs),
(823,305,o),
(799,319,o),
(799,344,cs),
(799,352,o),
(800,360,o),
(800,369,cs,{
name = hr04;
}),
(800,397,o),
(775,400,o),
(764,418,cs),
(758,428,o),
(763,450,o),
(757,460,cs),
(746,479,o),
(720,483,o),
(706,496,cs),
(694,508,o),
(696,526,o),
(683,535,cs),
(669,545,o),
(653,542,o),
(638,550,cs),
(619,560,o),
(617,586,o),
(590,586,cs),
(580,586,o),
(570,583,o),
(562,583,cs,{
name = hr05;
}),
(538,583,o),
(531,608,o),
(505,608,cs,{
name = hr06;
}),
(491,608,o),
(474,596,o),
(460,596,cs,{
name = hr07;
}),
(447,596,o),
(429,608,o),
(416,608,cs,{
name = hr08;
}),
(394,608,o),
(386,585,o),
(361,585,cs,{
name = hr09;
}),
(352,585,o),
(343,587,o),
(335,587,cs,{
name = hr10;
}),
(310,586,o),
(303,558,o),
(286,549,cs),
(270,541,o),
(248,543,o),
(235,532,cs),
(224,522,o),
(220,501,o),
(210,491,cs),
(199,480,o),
(178,480,o),
(170,467,cs),
(163,456,o),
(166,435,o),
(159,424,cs),
(149,407,o),
(124,401,o),
(124,376,cs),
(124,368,o),
(125,359,o),
(125,351,cs),
(125,332,o),
(100,311,o),
(100,290,cs,{
name = hr11;
}),
(100,275,o),
(112,265,o),
(112,248,cs),
(112,233,o),
(100,218,o),
(100,204,cs),
(100,183,o),
(125,168,o),
(125,149,cs),
(125,141,o),
(122,133,o),
(122,124,cs),
(122,98,o),
(148,87,o),
(156,75,cs),
(167,57,o),
(160,46,o),
(171,28,cs),
(181,12,o),
(197,15,o),
(210,4,cs),
(223,-7,o),
(222,-31,o),
(240,-42,cs),
(256,-52,o),
(263,-43,o),
(286,-55,cs),
(299,-62,o),
(311,-91,o),
(337,-91,cs),
(344,-91,o),
(353,-89,o),
(361,-89,cs,{
name = hr12;
}),
(385,-89,o),
(396,-114,o),
(416,-114,cs,{
name = hr13;
}),
(431,-114,o),
(446,-102,o),
(462,-102,cs,{
name = hr14;
}),
(477,-102,o),
(493,-112,o),
(508,-112,cs,{
name = hr15;
}),
(525,-112,o),
(538,-94,o),
(556,-89,cs)
);
},
{
closed = 1;
nodes = (
(517,0,o),
(507,-13,o),
(495,-13,cs),
(484,-13,o),
(473,-6,o),
(462,-6,cs),
(450,-6,o),
(438,-15,o),
(426,-15,c),
(412,-13,o),
(405,3,o),
(386,3,cs),
(381,3,o),
(376,2,o),
(371,2,cs),
(352,2,o),
(345,23,o),
(334,28,cs),
(317,37,o),
(312,29,o),
(301,37,cs),
(288,45,o),
(289,63,o),
(279,71,cs),
(270,79,o),
(258,77,o),
(251,88,cs),
(243,101,o),
(248,110,o),
(240,123,cs),
(235,132,o),
(215,139,o),
(215,158,cs),
(215,163,o),
(217,169,o),
(217,174,cs),
(217,189,o),
(200,200,o),
(200,215,cs,{
name = hr16;
}),
(200,226,o),
(208,237,o),
(208,248,cs),
(208,260,o),
(200,267,o),
(200,278,cs),
(200,294,o),
(217,308,o),
(217,324,cs),
(217,329,o),
(216,335,o),
(216,340,cs),
(216,359,o),
(235,363,o),
(242,376,cs),
(247,384,o),
(245,399,o),
(250,407,cs),
(257,416,o),
(271,416,o),
(279,424,cs),
(287,432,o),
(289,447,o),
(298,454,cs),
(307,462,o),
(323,460,o),
(334,466,cs),
(347,472,o),
(351,493,o),
(370,493,cs),
(376,493,o),
(381,492,o),
(387,492,cs,{
name = hr17;
}),
(406,492,o),
(413,509,o),
(429,509,cs),
(439,509,o),
(451,500,o),
(461,500,cs),
(471,500,o),
(483,509,o),
(494,509,cs),
(513,509,o),
(516,491,o),
(535,491,cs,{
name = hr18;
}),
(541,491,o),
(548,493,o),
(555,493,cs,{
name = hr19;
}),
(575,493,o),
(576,474,o),
(589,467,cs),
(601,460,o),
(612,464,o),
(622,456,cs),
(632,449,o),
(630,436,o),
(639,428,cs),
(649,418,o),
(668,415,o),
(676,402,cs),
(680,394,o),
(677,379,o),
(681,371,cs),
(689,357,o),
(707,356,o),
(707,335,cs),
(707,329,o),
(706,323,o),
(706,318,cs),
(706,300,o),
(724,289,o),
(724,273,cs),
(724,264,o),
(716,254,o),
(716,245,cs),
(716,234,o),
(724,223,o),
(724,213,c),
(721,199,o),
(706,196,o),
(706,177,cs),
(706,171,o),
(707,164,o),
(707,157,cs),
(707,133,o),
(691,136,o),
(683,122,cs),
(677,111,o),
(677,94,o),
(670,84,cs),
(663,76,o),
(651,76,o),
(644,68,cs),
(636,60,o),
(632,45,o),
(622,38,cs),
(613,31,o),
(597,30,o),
(587,24,c),
(575,19,o),
(574,3,o),
(554,3,cs),
(549,3,o),
(544,4,o),
(539,4,cs),
(536,4,o),
(533,4,o),
(530,3,cs)
);
},
{
closed = 1;
nodes = (
(368,417,o),
(292,341,o),
(292,247,cs),
(292,153,o),
(368,77,o),
(462,77,cs),
(556,77,o),
(632,153,o),
(632,247,cs),
(632,341,o),
(556,417,o),
(462,417,cs)
);
},
{
closed = 1;
nodes = (
(505,117,l),
(420,117,l),
(420,292,l),
(366,292,l),
(366,360,l),
(557,360,l),
(557,292,l),
(505,292,l)
);
}
);
width = 923;
}
);
},
{
glyphname = at;
layers = (
{
layerId = master01;
shapes = (
{
closed = 1;
nodes = (
(832,485,o),
(705,592,o),
(523,592,cs),
(260,592,o),
(50,356,o),
(50,118,cs),
(50,-64,o),
(175,-172,o),
(357,-172,cs),
(458,-172,o),
(560,-136,o),
(643,-73,c),
(596,-50,l),
(528,-104,o),
(447,-135,o),
(368,-135,cs),
(221,-135,o),
(121,-39,o),
(121,123,cs),
(121,321,o),
(283,555,o),
(512,555,cs),
(659,555,o),
(761,459,o),
(761,295,cs),
(761,185,o),
(714,29,o),
(594,29,cs),
(568,29,o),
(557,39,o),
(557,65,cs),
(557,95,o),
(596,328,o),
(627,468,c),
(604,468,l),
(581,441,l),
(556,451,o),
(523,462,o),
(506,462,c,{
name = hr01;
}),
(392,434,o),
(245,364,o),
(245,105,cs),
(245,22,o),
(268,-12,o),
(317,-12,cs),
(348,-12,o),
(391,3,o),
(442,27,cs),
(493,51,l),
(495,6,o),
(517,-12,o),
(562,-12,cs),
(719,-12,o),
(832,132,o),
(832,301,cs)
);
},
{
closed = 1;
nodes = (
(332,40,o),
(316,57,o),
(316,105,cs),
(316,250,o),
(356,405,o),
(474,405,cs),
(549,405,l),
(495,92,l),
(425,60,ls),
(399,48,o),
(376,40,o),
(358,40,cs)
);
}
);
width = 882;
}
);
unicode = 64;
},
{
glyphname = ampersand;
layers = (
{
layerId = master01;
shapes = (
{
closed = 1;
nodes = (
(258,623,o),
(288,628,o),
(319,628,cs),
(352,628,o),
(386,621,o),
(417,610,c),
(417,506,ls),
(417,492,o),
(454,492,o),
(462,492,c),
(488,641,l),
(438,664,o),
(371,681,o),
(309,681,cs),
(212,681,o),
(133,641,o),
(133,525,cs),
(133,481,o),
(157,431,o),
(182,390,c),
(152,373,ls),
(55,318,o),
(7,232,o),
(7,155,cs),
(7,65,o),
(74,-13,o),
(208,-13,cs),
(279,-13,o),
(341,19,o),
(391,68,c),
(436,0,l,{
name = hr01;
}),
(564,0,ls),
(580,0,o),
(580,24,o),
(580,31,c),
(496,55,l),
(446,131,l),
(499,207,o),
(531,297,o),
(539,367,c),
(525,374,o),
(416,407,o),
(409,407,cs),
(407,407,o),
(398,384,o),
(398,374,cs),
(398,369,o),
(399,365,o),
(403,363,cs),
(471,328,l),
(469,285,o),
(450,228,o),
(416,176,c),
(249,433,ls),
(225,469,o),
(210,506,o),
(210,543,cs),
(210,566,o),
(216,589,o),
(230,611,c)
);
},
{
closed = 1;
nodes = (
(130,45,o),
(83,109,o),
(83,180,cs),
(83,234,o),
(111,292,o),
(169,329,cs),
(206,353,l),
(363,111,l),
(322,72,o),
(271,45,o),
(215,45,cs,{
name = hr02;
})
);
}
);
width = 580;
}
);
unicode = 38;
},
{
glyphname = paragraph;
layers = (
{
layerId = master01;
shapes = (
{
closed = 1;
nodes = (
(161,0,l),
(146,0,o),
(146,23,o),
(146,30,c),
(257,48,l),
(257,302,l),
(142,304,o),
(50,363,o),
(50,501,cs),
(50,667,o),
(205,712,o),
(342,712,cs),
(452,712,o),
(551,683,o),
(551,679,cs),
(551,672,o),
(551,642,o),
(537,642,cs),
(466,642,l),
(466,0,l),
(395,0,l),
(395,642,l),
(328,642,l),
(328,0,l,{
name = hr00;
})
);
}
);
width = 591;
}
);
unicode = 182;
},
{
glyphname = section;
layers = (
{
layerId = master01;
shapes = (
{
closed = 1;
nodes = (
(97,216,o),
(260,134,o),
(278,64,c),
(276,-8,o),
(202,-35,o),
(135,-35,cs),
(118,-35,o),
(102,-34,o),
(88,-31,c),
(88,70,ls),
(88,84,o),
(54,84,o),
(46,84,c),
(20,-70,l),
(60,-80,o),
(99,-85,o),
(136,-85,cs),
(254,-85,o),
(343,-32,o),
(343,59,cs),
(343,114,o),
(286,165,o),
(232,210,c),
(311,262,o),
(330,310,o),
(330,360,cs,{
name = hr01;
}),
(330,411,o),
(167,493,o),
(149,563,c),
(151,635,o),
(225,662,o),
(292,662,cs),
(309,662,o),
(325,661,o),
(339,658,c),
(339,557,ls),
(339,543,o),
(373,543,o),
(381,543,c),
(407,697,l),
(367,707,o),
(328,712,o),
(291,712,cs),
(173,712,o),
(84,659,o),
(84,568,cs),
(84,513,o),
(141,461,o),
(195,417,c),
(116,363,o),
(97,316,o),
(97,267,cs)
);
},
{
closed = 1;
nodes = (
(253,267,o),
(217,250,o),
(197,250,cs),
(163,250,o),
(154,272,o),
(154,299,cs),
(154,327,o),
(174,360,o),
(174,360,c),
(174,360,o),
(210,377,o),
(230,377,cs),
(264,377,o),
(273,355,o),
(273,328,cs),
(273,300,o),
(253,267,o),
(253,267,c)
);
}
);
width = 427;
}
);
unicode = 167;
},
{
glyphname = copyright;
layers = (
{
layerId = master01;
shapes = (
{
closed = 1;
nodes = (
(434,434,o),
(407,433,o),
(404,424,c),
(393,375,l),
(374,364,o),
(355,359,o),
(326,359,cs),
(263,359,o),
(214,407,o),
(214,505,cs),
(214,563,o),
(234,613,o),
(260,635,c),
(279,642,o),
(304,646,o),
(326,646,cs),
(346,646,o),
(372,641,o),
(389,636,c),
(389,585,l),
(389,573,o),
(417,573,o),
(423,573,c),
(437,654,l),
(406,675,o),
(370,687,o),
(329,687,cs),
(235,687,o),
(158,624,o),
(158,506,cs),
(158,383,o),
(228,322,o),
(321,322,cs),
(366,322,o),
(406,333,o),
(436,355,c),
(440,434,l,{
name = hr00;
})
);
},
{
closed = 1;
nodes = (
(67,637,o),
(176,746,o),
(313,746,cs),
(450,746,o),
(559,637,o),
(559,500,cs),
(559,363,o),
(450,254,o),
(313,254,cs),
(176,254,o),
(67,363,o),
(67,500,cs)
);
},
{
closed = 1;
nodes = (
(30,343,o),
(156,217,o),
(313,217,cs),
(470,217,o),
(596,343,o),
(596,500,cs),
(596,657,o),
(470,783,o),
(313,783,cs),
(156,783,o),
(30,657,o),
(30,500,cs)
);
}
);
width = 626;
}
);
unicode = 169;
},
{
glyphname = registered;
layers = (
{
layerId = master01;
shapes = (
{
closed = 1;
nodes = (
(226,364,l),
(185,353,l),
(185,347,o),
(185,328,o),
(198,328,cs),
(198,328,o),
(210,328,o),
(249,330,c),
(294,328,o),
(310,328,o),
(310,328,c),
(324,328,o),
(324,347,o),
(324,353,c),
(275,364,l),
(279,475,l),
(316,481,l),
(320,477,o),
(324,471,o),
(329,463,cs),
(401,328,l),
(463,328,ls),
(477,328,o),
(477,347,o),
(477,353,c),
(442,361,l),
(381,471,l),
(374,481,o),
(369,489,o),
(363,494,c),
(404,513,o),
(428,549,o),
(428,581,cs),
(428,634,o),
(391,681,o),
(323,681,c),
(247,678,l),
(198,681,l),
(185,681,o),
(185,660,o),
(185,655,c),
(226,645,l,{
name = hr00;
})
);
},
{
closed = 1;
nodes = (
(359,648,o),
(380,614,o),
(380,582,cs),
(380,548,o),
(357,513,o),
(304,512,c),
(280,512,l),
(275,645,l),
(313,649,l)
);
},
{
closed = 1;
nodes = (
(67,637,o),
(176,746,o),
(313,746,cs),
(450,746,o),
(559,637,o),
(559,500,cs),
(559,363,o),
(450,254,o),
(313,254,cs),
(176,254,o),
(67,363,o),
(67,500,c)
);
},
{
closed = 1;
nodes = (
(30,343,o),
(156,217,o),
(313,217,cs),
(470,217,o),
(596,343,o),
(596,500,cs),
(596,657,o),
(470,783,o),
(313,783,cs),
(156,783,o),
(30,657,o),
(30,500,cs)
);
}
);
width = 626;
}
);
unicode = 174;
},
{
glyphname = trademark;
layers = (
{
layerId = master01;
shapes = (
{
closed = 1;
nodes = (
(435,347,ls),
(450,347,o),
(450,366,o),
(450,372,c),
(403,383,l),
(414,611,l),
(516,371,l),
(534,371,l),
(646,617,l),
(656,383,l),
(609,372,l),
(609,366,o),
(609,347,o),
(624,347,cs),
(680,349,l),
(737,347,ls),
(751,347,o),
(751,366,o),
(751,372,c),
(710,383,l),
(694,663,l),
(734,673,l),
(734,680,o),
(734,700,o),
(720,700,cs,{
name = hr01;
}),
(640,698,l),
(530,459,l),
(433,698,l),
(350,700,ls),
(336,700,o),
(336,680,o),
(336,673,c),
(376,663,l,{
name = hr02;
}),
(361,383,l),
(319,372,l),
(319,366,o),
(319,347,o),
(334,347,cs),
(381,349,l)
);
},
{
closed = 1;
nodes = (
(46,700,ls,{
name = hr03;
}),
(35,700,o),
(24,700,o),
(24,691,cs),
(24,691,o),
(24,690,o),
(30,606,c),
(36,606,o),
(62,606,o),
(64,618,cs),
(71,664,l),
(141,662,l),
(139,523,l),
(141,383,l),
(86,372,l),
(86,366,o),
(86,347,o),
(100,347,cs),
(100,347,o),
(126,347,o),
(167,349,c),
(212,347,o),
(231,347,o),
(231,347,c),
(245,347,o),
(245,366,o),
(245,372,c),
(190,383,l),
(192,523,l),
(190,662,l),
(261,664,l),
(267,618,ls),
(268,606,o),
(295,606,o),
(301,606,c),
(307,690,o),
(307,691,o),
(307,691,cs),
(307,700,o),
(297,700,o),
(285,700,cs),
(165,697,l)
);
}
);
width = 798;
}
);
unicode = 8482;
},
{
glyphname = degree;
layers = (
{
layerId = master01;
shapes = (
{
closed = 1;
nodes = (
(20,501,o),
(82,439,o),
(159,439,cs),
(236,439,o),
(298,501,o),
(298,578,cs),
(298,655,o),
(236,717,o),
(159,717,cs),
(82,717,o),
(20,655,o),
(20,578,cs,{
name = hr00;
})
);
},
{
closed = 1;
nodes = (
(66,630,o),
(107,670,o),
(159,670,cs),
(211,670,o),
(251,630,o),
(251,578,cs),
(251,526,o),
(211,485,o),
(159,485,cs),
(107,485,o),
(66,526,o),
(66,578,cs)
);
}
);
width = 318;
}
);
unicode = 176;
},
{
glyphname = bar;
layers = (
{
layerId = master01;
shapes = (
{
closed = 1;
nodes = (
(170,-208,l),
(170,673,l),
(100,673,l),
(100,-208,l,{
name = hr00;
})
);
}
);
width = 270;
}
);
unicode = 124;
},
{
glyphname = brokenbar;
layers = (
{
layerId = master01;
shapes = (
{
closed = 1;
nodes = (
(170,-208,l),
(170,143,l),
(100,143,l),
(100,-208,l,{
name = hr00;
})
);
},
{
closed = 1;
nodes = (
(170,322,l),
(170,673,l),
(100,673,l),
(100,322,l)
);
}
);
width = 270;
}
);
unicode = 166;
},
{
glyphname = dagger;
layers = (
{
layerId = master01;
shapes = (
{
closed = 1;
nodes = (
(147,437,l),
(139,298,l),
(159,-45,l),
(208,-45,l),
(228,298,l),
(220,437,l),
(351,437,l),
(351,486,l),
(216,502,l),
(208,641,l),
(159,641,l),
(151,502,l),
(15,486,l),
(15,437,l,{
name = hr00;
})
);
}
);
width = 366;
}
);
unicode = 8224;
},
{
glyphname = uni2113;
layers = (
{
layerId = master01;
shapes = (
{
closed = 1;
nodes = (
(86,565,l),
(86,115,ls),
(86,15,o),
(110,-12,o),
(167,-12,cs),
(205,-12,o),
(253,7,o),
(288,36,c),
(285,50,o),
(280,58,o),
(271,66,c),
(248,52,o),
(219,38,o),
(196,38,cs),
(174,38,o),
(157,51,o),
(157,89,cs),
(157,568,l),
(139,580,l,{
name = hr00;
})
);
}
);
width = 288;
}
);
unicode = 8467;
},
{
glyphname = daggerdbl;
layers = (
{
layerId = master01;
shapes = (
{
closed = 1;
nodes = (
(147,437,l),
(139,298,l),
(147,159,l),
(15,159,l),
(15,110,l),
(151,94,l),
(159,-45,l),
(208,-45,l),
(216,94,l),
(351,110,l),
(351,159,l),
(220,159,l),
(228,298,l),
(220,437,l),
(351,437,l),
(351,486,l),
(216,502,l),
(208,641,l),
(159,641,l),
(151,502,l),
(15,486,l),
(15,437,l,{
name = hr00;
})
);
}
);
width = 366;
}
);
unicode = 8225;
},
{
glyphname = estimated;
layers = (
{
layerId = master01;
shapes = (
{
closed = 1;
nodes = (
(755,311,ls),
(755,490,o),
(594,635,o),
(395,635,cs),
(196,635,o),
(35,490,o),
(35,311,cs),
(35,132,o),
(196,-13,o),
(395,-13,cs),
(511,-13,o),
(615,37,o),
(680,113,c),
(628,113,l),
(571,48,o),
(489,6,o),
(396,6,cs),
(309,6,o),
(231,43,o),
(175,102,cs),
(170,107,o),
(167,114,o),
(167,122,cs),
(167,298,ls),
(167,301,o),
(169,302,o),
(172,302,cs),
(755,302,l)
);
},
{
closed = 1;
nodes = (
(623,323,o),
(622,320,o),
(619,320,cs),
(172,320,ls),
(169,320,o),
(167,323,o),
(167,325,cs),
(167,499,ls),
(167,508,o),
(170,515,o),
(176,521,cs),
(232,579,o),
(310,616,o),
(396,616,cs,{
name = hr01;
}),
(481,616,o),
(558,580,o),
(614,524,cs),
(620,518,o),
(623,511,o),
(623,503,cs),
(623,325,ls)
);
}
);
width = 788;
}
);
unicode = 8494;
},
{
glyphname = Euro;
layers = (
{
layerId = master01;
shapes = (
{
closed = 1;
nodes = (
(176,251,l),
(176,298,l),
(325,298,l),
(325,335,l),
(178,335,l),
(189,455,o),
(234,513,o),
(309,513,cs),
(339,513,o),
(377,503,o),
(400,487,c),
(396,414,l),
(396,402,o),
(429,398,o),
(436,398,cs),
(437,398,o),
(463,510,o),
(465,524,c),
(425,547,o),
(367,563,o),
(313,563,cs),
(205,563,o),
(115,483,o),
(96,335,c),
(39,335,l),
(39,298,l),
(93,298,l),
(93,251,l),
(39,251,l),
(39,214,l),
(96,214,l),
(114,61,o),
(196,-12,o),
(301,-12,cs),
(359,-12,o),
(420,4,o),
(463,27,c),
(461,41,o),
(435,153,o),
(434,153,cs),
(427,153,o),
(394,149,o),
(394,137,c),
(398,64,l),
(372,48,o),
(342,37,o),
(309,37,cs),
(234,37,o),
(189,94,o),
(178,214,c),
(325,214,l),
(325,251,l,{
name = hr00;
})
);
}
);
width = 510;
}
);
unicode = 8364;
},
{
glyphname = cent;
layers = (
{
layerId = master01;
shapes = (
{
closed = 1;
nodes = (
(288,38,l),
(304,38,ls),
(345,38,o),
(392,50,o),
(438,81,c),
(435,95,o),
(430,103,o),
(421,111,c),
(381,93,o),
(350,86,o),
(318,86,cs),
(309,86,o),
(300,86,o),
(291,88,c),
(318,464,l),
(334,463,o),
(352,460,o),
(372,456,c),
(368,383,l),
(368,371,o),
(401,367,o),
(408,367,cs),
(409,367,o),
(435,479,o),
(437,493,c),
(398,510,o),
(360,517,o),
(322,518,c),
(326,574,l),
(286,574,l),
(282,516,l),
(173,502,o),
(90,421,o),
(90,280,cs),
(90,143,o),
(155,65,o),
(248,44,c),
(243,-35,l),
(283,-35,l,{
name = hr00;
})
);
},
{
closed = 1;
nodes = (
(168,389,o),
(202,450,o),
(278,462,c),
(252,101,l),
(199,128,o),
(168,190,o),
(168,281,cs)
);
}
);
width = 510;
}
);
unicode = 162;
},
{
glyphname = currency;
layers = (
{
layerId = master01;
shapes = (
{
closed = 1;
nodes = (
(107,248,o),
(117,218,o),
(135,193,c),
(58,117,l),
(91,84,l),
(167,161,l),
(192,143,o),
(222,133,o),
(255,133,cs),
(288,133,o),
(318,143,o),
(342,161,c),
(419,84,l),
(452,117,l),
(374,193,l),
(392,218,o),
(403,248,o),
(403,281,cs),
(403,314,o),
(392,344,o),
(374,368,c),
(452,445,l),
(419,478,l),
(342,400,l),
(318,418,o),
(288,429,o),
(255,429,cs),
(222,429,o),
(192,418,o),
(167,400,c),
(91,478,l),
(58,445,l),
(135,368,l),
(117,344,o),
(107,314,o),
(107,281,cs,{
name = hr00;
})
);
},
{
closed = 1;
nodes = (
(170,329,o),
(207,366,o),
(255,366,cs),
(303,366,o),
(340,329,o),
(340,281,cs),
(340,233,o),
(303,196,o),
(255,196,cs),
(207,196,o),
(170,233,o),
(170,281,cs)
);
}
);
width = 510;
}
);
unicode = 164;
},
{
glyphname = dollar;
layers = (
{
layerId = master01;
shapes = (
{
closed = 1;
nodes = (
(252,-12,l),
(360,-11,o),
(441,40,o),
(441,135,cs),
(441,180,o),
(410,236,o),
(347,271,cs),
(274,312,l),
(288,508,l),
(310,505,o),
(334,498,o),
(353,487,c),
(349,414,l),
(349,402,o),
(382,398,o),
(389,398,cs),
(390,398,o),
(416,510,o),
(418,524,c),
(378,545,o),
(334,558,o),
(291,561,c),
(296,627,l),
(256,627,l),
(251,561,l),
(147,553,o),
(88,484,o),
(88,413,cs),
(88,364,o),
(115,314,o),
(171,282,cs),
(230,248,l),
(216,42,l),
(189,46,o),
(159,54,o),
(138,65,c),
(138,138,ls),
(138,150,o),
(104,154,o),
(97,154,cs),
(96,154,o),
(77,42,o),
(76,28,c),
(126,7,o),
(171,-5,o),
(212,-10,c),
(207,-88,l),
(247,-88,l,{
name = hr00;
})
);
},
{
closed = 1;
nodes = (
(343,183,o),
(360,152,o),
(360,123,cs),
(360,79,o),
(323,39,o),
(256,39,c),
(268,226,l),
(308,203,ls)
);
},
{
closed = 1;
nodes = (
(159,476,o),
(195,503,o),
(248,508,c),
(236,334,l),
(213,347,ls),
(187,362,o),
(159,386,o),
(159,428,cs)
);
}
);
width = 510;
}
);
unicode = 36;
},
{
glyphname = franc;
layers = (
{
layerId = master01;
shapes = (
{
closed = 1;
nodes = (
(62,125,l),
(111,125,l),
(111,45,l),
(41,27,l),
(41,21,o),
(41,0,o),
(54,0,cs),
(54,0,o),
(63,0,o),
(145,3,c),
(225,0,o),
(257,0,o),
(257,0,c),
(270,0,o),
(270,21,o),
(270,27,c),
(177,45,l),
(180,125,l),
(348,125,l),
(348,162,l),
(181,162,l),
(184,241,l),
(389,252,l),
(389,293,l),
(185,294,l),
(177,507,l),
(376,509,l),
(376,434,ls),
(376,423,o),
(408,423,o),
(415,423,c),
(436,546,l),
(436,554,o),
(424,554,o),
(409,554,cs,{
name = hr01;
}),
(144,551,l),
(62,554,o),
(54,554,o),
(54,554,c),
(41,554,o),
(41,533,o),
(41,526,c),
(111,510,l),
(111,162,l),
(62,162,l)
);
}
);
width = 468;
}
);
unicode = 8355;
},
{
glyphname = lira;
layers = (
{
layerId = master01;
shapes = (
{
closed = 1;
nodes = (
(348,251,l),
(198,251,l),
(197,267,o),
(196,282,o),
(193,298,c),
(348,298,l),
(348,335,l),
(186,335,l),
(181,361,o),
(177,388,o),
(177,415,cs),
(177,466,o),
(194,513,o),
(261,513,cs),
(294,513,o),
(328,503,o),
(354,487,c),
(350,414,l),
(350,402,o),
(383,398,o),
(390,398,cs),
(391,398,o),
(417,510,o),
(419,524,c),
(385,542,o),
(339,556,o),
(292,561,cs),
(280,562,o),
(269,563,o),
(257,563,cs),
(168,563,o),
(104,520,o),
(104,414,cs),
(104,387,o),
(108,360,o),
(114,335,c),
(62,335,l),
(62,298,l),
(122,298,l),
(126,282,o),
(129,267,o),
(131,251,c),
(62,251,l),
(62,214,l),
(134,214,l),
(133,161,o),
(113,104,o),
(45,32,c),
(68,0,l),
(434,0,ls),
(451,0,o),
(456,5,o),
(458,14,c),
(458,31,o),
(436,163,o),
(435,163,cs),
(427,163,o),
(394,163,o),
(394,147,cs),
(394,62,l),
(117,37,l),
(117,38,o),
(116,40,o),
(116,41,cs),
(169,117,o),
(190,169,o),
(196,214,c),
(348,214,l,{
name = hr00;
})
);
}
);
width = 510;
}
);
unicode = 8356;
},
{
glyphname = sterling;
layers = (
{
layerId = master01;
shapes = (
{
closed = 1;
nodes = (
(129,263,l),
(132,247,o),
(134,232,o),
(134,216,cs),
(134,163,o),
(114,105,o),
(45,32,c),
(68,0,l),
(434,0,ls),
(451,0,o),
(456,5,o),
(458,14,c),
(458,31,o),
(436,163,o),
(435,163,cs),
(427,163,o),
(394,163,o),
(394,147,cs),
(394,62,l),
(117,37,l),
(116,41,l),
(182,135,o),
(198,192,o),
(198,244,cs),
(198,250,o),
(197,257,o),
(197,263,c),
(348,263,l),
(348,300,l),
(192,300,l),
(186,333,o),
(177,368,o),
(177,415,cs,{
name = hr01;
}),
(177,466,o),
(194,513,o),
(261,513,cs),
(294,513,o),
(328,503,o),
(354,487,c),
(350,414,l),
(350,402,o),
(383,398,o),
(390,398,cs),
(391,398,o),
(417,510,o),
(419,524,c),
(376,547,o),
(315,563,o),
(257,563,cs),
(168,563,o),
(104,520,o),
(104,414,cs),
(104,373,o),
(113,336,o),
(122,300,c),
(62,300,l),
(62,263,l)
);
}
);
width = 510;
}
);
unicode = 163;
},
{
glyphname = yen;
layers = (
{
layerId = master01;
shapes = (
{
closed = 1;
nodes = (
(295,216,l),
(295,223,l),
(315,263,l),
(416,263,l),
(416,300,l),
(334,300,l),
(437,499,l),
(484,521,l),
(484,528,o),
(482,551,o),
(470,551,c),
(408,547,l),
(340,551,l),
(326,551,o),
(326,527,o),
(326,521,c),
(388,501,l),
(268,262,l),
(146,501,l),
(205,521,l),
(205,527,o),
(203,551,o),
(191,551,c),
(118,547,l),
(40,551,ls),
(29,551,o),
(26,528,o),
(26,521,c),
(73,499,l),
(176,300,l),
(100,300,l),
(100,263,l),
(195,263,l),
(217,222,l),
(217,216,l),
(100,216,l),
(100,179,l),
(217,179,l),
(217,52,l),
(112,30,l),
(112,23,o),
(112,0,o),
(127,0,cs),
(127,0,o),
(165,0,o),
(259,4,c),
(352,0,o),
(385,0,o),
(385,0,c),
(400,0,o),
(400,23,o),
(400,30,c),
(295,52,l),
(295,179,l),
(416,179,l),
(416,216,l,{
name = hr00;
})
);
}
);
width = 510;
}
);
unicode = 165;
},
{
glyphname = plus;
layers = (
{
layerId = master01;
shapes = (
{
closed = 1;
nodes = (
(226,249,l),
(226,95,l),
(283,95,l),
(283,249,l),
(437,249,l),
(437,306,l),
(283,306,l),
(283,459,l),
(226,459,l),
(226,306,l),
(73,306,l),
(73,249,l,{
name = hr00;
})
);
}
);
width = 510;
}
);
unicode = 43;
},
{
glyphname = minus;
layers = (
{
layerId = master01;
shapes = (
{
closed = 1;
nodes = (
(437,249,l),
(437,306,l),
(73,306,l),
(73,249,l,{
name = hr00;
})
);
}
);
width = 510;
}
);
unicode = 8722;
},
{
glyphname = multiply;
layers = (
{
layerId = master01;
shapes = (
{
closed = 1;
nodes = (
(254,237,l),
(377,115,l),
(417,155,l),
(294,277,l),
(417,400,l),
(377,440,l),
(254,317,l),
(132,440,l),
(92,400,l),
(214,277,l),
(92,155,l),
(132,115,l,{
name = hr00;
})
);
}
);
width = 510;
}
);
unicode = 215;
},
{
glyphname = divide;
layers = (
{
layerId = master01;
shapes = (
{
closed = 1;
nodes = (
(437,249,l),
(437,306,l),
(73,306,l),
(73,249,l,{
name = hr00;
})
);
},
{
closed = 1;
nodes = (
(215,380,o),
(233,362,o),
(255,362,cs),
(277,362,o),
(296,380,o),
(296,402,cs),
(296,424,o),
(277,443,o),
(255,443,cs),
(233,443,o),
(215,424,o),
(215,402,cs)
);
},
{
closed = 1;
nodes = (
(215,130,o),
(233,112,o),
(255,112,cs),
(277,112,o),
(296,130,o),
(296,152,cs),
(296,174,o),
(277,193,o),
(255,193,cs),
(233,193,o),
(215,174,o),
(215,152,cs)
);
}
);
width = 510;
}
);
unicode = 247;
},
{
glyphname = equal;
layers = (
{
layerId = master01;
shapes = (
{
closed = 1;
nodes = (
(437,330,l),
(437,387,l),
(73,387,l),
(73,330,l,{
name = hr00;
})
);
},
{
closed = 1;
nodes = (
(437,168,l),
(437,225,l),
(73,225,l),
(73,168,l)
);
}
);
width = 510;
}
);
unicode = 61;
},
{
glyphname = greater;
layers = (
{
layerId = master01;
shapes = (
{
closed = 1;
nodes = (
(372,277,l),
(73,147,l),
(73,87,l),
(437,249,l),
(437,306,l),
(73,468,l),
(73,408,l,{
name = hr00;
})
);
}
);
width = 510;
}
);
unicode = 62;
},
{
glyphname = less;
layers = (
{
layerId = master01;
shapes = (
{
closed = 1;
nodes = (
(73,249,l),
(73,306,l),
(437,468,l),
(437,408,l),
(138,277,l),
(437,147,l),
(437,87,l,{
name = hr00;
})
);
}
);
width = 510;
}
);
unicode = 60;
},
{
glyphname = approxequal;
layers = (
{
layerId = master01;
shapes = (
{
closed = 1;
nodes = (
(400,381,o),
(375,372,o),
(345,372,cs),
(289,372,o),
(228,397,o),
(168,397,cs,{
name = hr01;
}),
(131,397,o),
(95,386,o),
(65,353,c),
(88,313,l,{
name = hr02;
}),
(111,331,o),
(135,338,o),
(164,338,cs,{
name = hr03;
}),
(219,338,o),
(281,313,o),
(341,313,cs,{
name = hr04;
}),
(377,313,o),
(414,324,o),
(445,359,c),
(423,399,l)
);
},
{
closed = 1;
nodes = (
(400,223,o),
(375,214,o),
(345,214,cs),
(289,214,o),
(228,239,o),
(168,239,cs,{
name = hr05;
}),
(131,239,o),
(95,228,o),
(65,195,c),
(88,155,l,{
name = hr06;
}),
(111,173,o),
(135,180,o),
(164,180,cs,{
name = hr07;
}),
(219,180,o),
(281,155,o),
(341,155,cs,{
name = hr08;
}),
(377,155,o),
(414,166,o),
(445,201,c),
(423,241,l)
);
}
);
width = 510;
}
);
unicode = 8776;
},
{
glyphname = asciitilde;
layers = (
{
layerId = master01;
shapes = (
{
closed = 1;
nodes = (
(400,303,o),
(375,294,o),
(345,294,cs),
(289,294,o),
(228,319,o),
(168,319,cs,{
name = hr01;
}),
(131,319,o),
(95,308,o),
(65,275,c),
(88,238,l,{
name = hr02;
}),
(111,256,o),
(135,263,o),
(164,263,cs,{
name = hr03;
}),
(219,263,o),
(281,238,o),
(341,238,cs,{
name = hr04;
}),
(377,238,o),
(414,249,o),
(445,284,c),
(423,321,l)
);
}
);
width = 510;
}
);
unicode = 126;
},
{
glyphname = logicalnot;
layers = (
{
layerId = master01;
shapes = (
{
closed = 1;
nodes = (
(437,306,l),
(383,306,l),
(383,137,l),
(437,137,l,{
name = hr00;
})
);
},
{
ref = minus;
}
);
width = 510;
}
);
unicode = 172;
},
{
glyphname = asciicircum;
layers = (
{
layerId = master01;
shapes = (
{
closed = 1;
nodes = (
(227,512,l),
(284,512,l),
(436,225,l),
(376,225,l),
(255,457,l),
(135,225,l),
(75,225,l,{
name = hr00;
})
);
}
);
width = 510;
}
);
unicode = 94;
},
{
glyphname = infinity;
layers = (
{
layerId = master01;
shapes = (
{
closed = 1;
nodes = (
(631,100,o),
(698,172,o),
(698,274,cs),
(698,388,o),
(629,454,o),
(547,454,cs),
(469,454,o),
(414,410,o),
(375,348,cs),
(369,339,l),
(326,399,o),
(278,454,o),
(204,454,cs),
(117,454,o),
(50,382,o),
(50,280,cs),
(50,166,o),
(119,100,o),
(201,100,cs),
(279,100,o),
(334,144,o),
(373,206,cs),
(379,216,l),
(422,155,o),
(470,100,o),
(544,100,cs,{
name = hr00;
})
);
},
{
closed = 1;
nodes = (
(141,175,o),
(99,218,o),
(99,279,cs),
(99,340,o),
(142,378,o),
(201,378,cs),
(257,378,o),
(296,335,o),
(333,283,c),
(318,259,ls),
(291,216,o),
(252,175,o),
(201,175,cs)
);
},
{
closed = 1;
nodes = (
(607,379,o),
(649,336,o),
(649,275,cs),
(649,214,o),
(606,176,o),
(547,176,cs),
(492,176,o),
(453,219,o),
(415,272,c),
(430,295,ls),
(457,338,o),
(496,379,o),
(547,379,cs)
);
}
);
width = 748;
}
);
unicode = 8734;
},
{
glyphname = integral;
layers = (
{
layerId = master01;
shapes = (
{
closed = 1;
nodes = (
(212,593,o),
(229,658,o),
(299,723,c),
(275,752,l),
(178,677,o),
(137,630,o),
(137,536,cs),
(137,118,ls),
(137,33,o),
(120,-32,o),
(50,-97,c),
(74,-126,l),
(171,-51,o),
(212,-4,o),
(212,90,cs),
(212,508,ls,{
name = hr00;
})
);
}
);
width = 349;
}
);
unicode = 8747;
},
{
glyphname = Omega;
layers = (
{
layerId = master01;
shapes = (
{
closed = 1;
nodes = (
(703,0,o),
(703,24,o),
(703,30,c),
(547,52,l),
(532,128,l),
(639,174,o),
(707,284,o),
(707,416,cs),
(707,595,o),
(560,712,o),
(379,712,cs),
(192,712,o),
(40,587,o),
(40,409,cs),
(40,278,o),
(106,169,o),
(211,125,c),
(197,52,l),
(41,30,l),
(41,24,o),
(41,0,o),
(55,0,cs),
(258,0,l),
(284,142,l),
(162,214,o),
(127,308,o),
(127,397,cs),
(127,554,o),
(233,658,o),
(373,658,cs),
(513,658,o),
(619,558,o),
(619,407,cs),
(619,312,o),
(584,215,o),
(460,142,c),
(486,0,l),
(689,0,ls,{
name = hr00;
})
);
}
);
width = 747;
}
);
unicode = 8486;
},
{
glyphname = Delta;
layers = (
{
layerId = master01;
shapes = (
{
closed = 1;
nodes = (
(40,0,l),
(613,0,l),
(364,700,l),
(288,700,l,{
name = hr00;
})
);
},
{
closed = 1;
nodes = (
(510,58,l),
(121,58,l),
(313,619,l)
);
}
);
width = 653;
}
);
unicode = 8710;
},
{
glyphname = product;
layers = (
{
layerId = master01;
shapes = (
{
closed = 1;
nodes = (
(467,38,o),
(485,5,o),
(555,-86,c),
(584,-66,l),
(549,14,o),
(542,14,o),
(542,128,cs),
(542,639,l),
(615,639,ls),
(630,639,o),
(630,670,o),
(630,678,cs),
(630,679,o),
(500,700,o),
(483,700,cs),
(197,700,ls),
(180,700,o),
(50,679,o),
(50,678,cs),
(50,670,o),
(50,639,o),
(65,639,cs),
(139,639,l),
(139,-73,l,{
name = hr01;
}),
(214,-73,l),
(214,639,l),
(466,639,l),
(467,132,ls)
);
}
);
width = 680;
}
);
unicode = 8719;
},
{
glyphname = summation;
layers = (
{
layerId = master01;
shapes = (
{
closed = 1;
nodes = (
(87,-73,l),
(478,-73,l),
(478,-7,l),
(132,-7,l),
(354,313,l),
(160,639,l),
(338,639,ls),
(355,639,o),
(485,660,o),
(485,661,cs),
(485,669,o),
(485,700,o),
(470,700,cs),
(124,700,l),
(20,678,l),
(20,670,o),
(20,639,o),
(35,639,cs),
(79,639,l),
(270,318,l),
(34,-22,l,{
name = hr00;
})
);
}
);
width = 508;
}
);
unicode = 8721;
},
{
glyphname = radical;
layers = (
{
layerId = master01;
shapes = (
{
closed = 1;
nodes = (
(449,643,l),
(492,647,o),
(603,662,o),
(603,663,cs),
(603,670,o),
(603,700,o),
(589,700,cs),
(402,700,l),
(220,-45,l),
(82,350,l),
(0,350,l),
(169,-126,l),
(261,-126,l,{
name = hr00;
})
);
}
);
width = 453;
}
);
unicode = 8730;
},
{
glyphname = partialdiff;
layers = (
{
layerId = master01;
shapes = (
{
closed = 1;
nodes = (
(484,444,o),
(395,638,o),
(132,712,c),
(105,637,l),
(244,609,o),
(358,512,o),
(396,398,c),
(360,422,o),
(310,433,o),
(272,433,cs),
(140,433,o),
(29,334,o),
(29,197,cs),
(29,69,o),
(117,-12,o),
(237,-12,cs),
(392,-12,o),
(484,105,o),
(484,243,cs,{
name = hr00;
})
);
},
{
closed = 1;
nodes = (
(166,37,o),
(111,102,o),
(111,195,cs),
(111,312,o),
(179,383,o),
(259,383,cs),
(344,383,o),
(399,317,o),
(399,225,cs),
(399,134,o),
(347,37,o),
(251,37,cs)
);
}
);
width = 519;
}
);
unicode = 8706;
},
{
glyphname = mu;
layers = (
{
layerId = master01;
shapes = (
{
closed = 1;
nodes = (
(128,15,l),
(153,-2,o),
(186,-12,o),
(230,-12,cs),
(238,-12,o),
(297,5,o),
(367,52,c),
(375,6,o),
(409,-12,o),
(447,-12,c),
(459,19,l),
(441,29,o),
(436,47,o),
(436,67,cs),
(436,440,ls),
(436,455,o),
(427,464,o),
(420,468,c),
(404,468,o),
(280,448,o),
(280,447,cs),
(280,440,o),
(280,410,o),
(294,410,cs),
(365,410,l),
(365,97,l),
(322,66,o),
(271,47,o),
(230,47,cs),
(182,47,o),
(144,72,o),
(144,144,cs),
(144,440,ls),
(144,455,o),
(135,464,o),
(128,468,c),
(112,468,o),
(10,448,o),
(10,447,cs),
(10,440,o),
(10,410,o),
(24,410,cs),
(73,410,l),
(73,-199,l),
(138,-199,l,{
name = hr00;
})
);
}
);
width = 509;
}
);
unicode = 181;
},
{
glyphname = percent;
layers = (
{
layerId = master01;
shapes = (
{
closed = 1;
nodes = (
(314,586,o),
(250,641,o),
(174,641,cs),
(95,641,o),
(30,581,o),
(30,469,cs),
(30,352,o),
(89,296,o),
(167,296,cs),
(252,296,o),
(314,354,o),
(314,474,cs,{
name = hr00;
})
);
},
{
closed = 1;
nodes = (
(238,380,o),
(219,338,o),
(172,338,cs),
(125,338,o),
(106,380,o),
(106,468,cs),
(106,556,o),
(125,598,o),
(172,598,cs),
(219,598,o),
(238,556,o),
(238,468,cs)
);
},
{
closed = 1;
nodes = (
(721,278,o),
(657,333,o),
(581,333,cs),
(502,333,o),
(437,273,o),
(437,161,cs),
(437,44,o),
(496,-12,o),
(574,-12,cs),
(659,-12,o),
(721,46,o),
(721,166,cs)
);
},
{
closed = 1;
nodes = (
(645,72,o),
(626,30,o),
(579,30,cs),
(532,30,o),
(513,72,o),
(513,160,cs),
(513,248,o),
(532,290,o),
(579,290,cs),
(626,290,o),
(645,248,o),
(645,160,cs)
);
},
{
closed = 1;
nodes = (
(252,-56,l),
(559,685,l),
(500,685,l),
(193,-56,l)
);
}
);
width = 751;
}
);
unicode = 37;
},
{
glyphname = perthousand;
layers = (
{
layerId = master01;
shapes = (
{
closed = 1;
nodes = (
(314,586,o),
(250,641,o),
(174,641,cs),
(95,641,o),
(30,581,o),
(30,469,cs),
(30,352,o),
(89,296,o),
(167,296,cs),
(252,296,o),
(314,354,o),
(314,474,cs,{
name = hr00;
})
);
},
{
closed = 1;
nodes = (
(238,380,o),
(219,338,o),
(172,338,cs),
(125,338,o),
(106,380,o),
(106,468,cs),
(106,556,o),
(125,598,o),
(172,598,cs),
(219,598,o),
(238,556,o),
(238,468,cs)
);
},
{
closed = 1;
nodes = (
(721,278,o),
(657,333,o),
(581,333,cs),
(502,333,o),
(437,273,o),
(437,161,cs),
(437,44,o),
(496,-12,o),
(574,-12,cs),
(659,-12,o),
(721,46,o),
(721,166,cs)
);
},
{
closed = 1;
nodes = (
(645,72,o),
(626,30,o),
(579,30,cs),
(532,30,o),
(513,72,o),
(513,160,cs),
(513,248,o),
(532,290,o),
(579,290,cs),
(626,290,o),
(645,248,o),
(645,160,cs)
);
},
{
closed = 1;
nodes = (
(252,-56,l),
(559,685,l),
(500,685,l),
(193,-56,l)
);
},
{
closed = 1;
nodes = (
(1043,278,o),
(979,333,o),
(903,333,cs),
(824,333,o),
(759,273,o),
(759,161,cs),
(759,44,o),
(818,-12,o),
(896,-12,cs),
(981,-12,o),
(1043,46,o),
(1043,166,cs)
);
},
{
closed = 1;
nodes = (
(967,72,o),
(948,30,o),
(901,30,cs),
(854,30,o),
(835,72,o),
(835,160,cs),
(835,248,o),
(854,290,o),
(901,290,cs),
(948,290,o),
(967,248,o),
(967,160,cs)
);
}
);
width = 1073;
}
);
unicode = 8240;
},
{
glyphname = lozenge;
layers = (
{
layerId = master01;
shapes = (
{
closed = 1;
nodes = (
(518,310,l),
(307,700,l),
(230,700,l),
(20,310,l),
(230,-79,l),
(307,-79,l,{
name = hr00;
})
);
},
{
closed = 1;
nodes = (
(435,310,l),
(255,-19,l),
(82,310,l),
(255,640,l)
);
}
);
width = 538;
}
);
unicode = 9674;
},
{
glyphname = commaaccent;
layers = (
{
layerId = master01;
shapes = (
{
closed = 1;
nodes = (
(114,-285,o),
(161,-226,o),
(161,-159,cs),
(161,-95,o),
(142,-50,o),
(115,-50,cs),
(97,-50,o),
(74,-53,o),
(56,-57,c),
(51,-81,o),
(48,-103,o),
(48,-122,cs),
(48,-162,o),
(60,-182,o),
(85,-182,cs),
(91,-182,o),
(94,-182,o),
(101,-181,c),
(101,-186,ls),
(101,-226,o),
(77,-259,o),
(37,-277,c),
(49,-307,l,{
name = hr00;
})
);
}
);
width = 197;
}
);
},
{
glyphname = commaaccent.salt;
layers = (
{
layerId = master01;
shapes = (
{
closed = 1;
nodes = (
(84,776,o),
(37,717,o),
(37,650,cs),
(37,586,o),
(56,541,o),
(83,541,cs),
(101,541,o),
(124,544,o),
(142,548,c),
(147,572,o),
(150,594,o),
(150,613,cs),
(150,653,o),
(138,673,o),
(113,673,cs),
(107,673,o),
(104,673,o),
(97,672,c),
(97,677,ls),
(97,717,o),
(121,750,o),
(161,768,c),
(149,798,l,{
name = hr00;
})
);
}
);
width = 197;
}
);
},
{
glyphname = dieresis;
layers = (
{
layerId = master01;
shapes = (
{
closed = 1;
nodes = (
(149,659,o),
(157,633,o),
(157,606,cs),
(157,581,o),
(152,556,o),
(151,553,c),
(151,553,o),
(119,544,o),
(102,544,cs),
(76,544,o),
(70,570,o),
(70,596,cs),
(70,623,o),
(76,649,o),
(77,652,c),
(77,652,o),
(110,659,o),
(126,659,cs,{
name = hr00;
})
);
},
{
closed = 1;
nodes = (
(297,659,o),
(305,633,o),
(305,606,cs),
(305,581,o),
(300,556,o),
(299,553,c),
(299,553,o),
(267,544,o),
(250,544,cs),
(224,544,o),
(218,570,o),
(218,596,cs),
(218,623,o),
(224,649,o),
(225,652,c),
(225,652,o),
(258,659,o),
(274,659,cs)
);
}
);
width = 374;
}
);
unicode = 168;
},
{
glyphname = dotaccent;
layers = (
{
layerId = master01;
shapes = (
{
closed = 1;
nodes = (
(102,662,o),
(70,655,o),
(70,655,c),
(70,655,o),
(62,625,o),
(62,596,cs),
(62,569,o),
(69,541,o),
(97,541,cs),
(117,541,o),
(148,550,o),
(148,550,c),
(148,550,o),
(155,579,o),
(155,606,cs),
(155,635,o),
(146,662,o),
(121,662,cs,{
name = hr00;
})
);
}
);
width = 217;
}
);
unicode = 729;
},
{
glyphname = grave;
layers = (
{
layerId = master01;
shapes = (
{
closed = 1;
nodes = (
(267,537,o),
(170,603,o),
(75,680,c),
(70,674,o),
(50,633,o),
(50,613,cs),
(50,608,o),
(51,603,o),
(55,601,cs),
(122,558,o),
(220,528,o),
(256,518,c),
(267,537,l,{
name = hr00;
})
);
}
);
width = 317;
}
);
unicode = 96;
},
{
glyphname = acute;
layers = (
{
layerId = master01;
shapes = (
{
closed = 1;
nodes = (
(97,528,o),
(195,558,o),
(262,601,cs),
(266,603,o),
(267,608,o),
(267,613,cs),
(267,633,o),
(247,674,o),
(242,680,c),
(147,603,o),
(50,537,o),
(50,537,c),
(61,518,l,{
name = hr00;
})
);
}
);
width = 317;
}
);
unicode = 180;
},
{
glyphname = hungarumlaut;
layers = (
{
layerId = master01;
shapes = (
{
closed = 1;
nodes = (
(97,528,o),
(185,558,o),
(252,601,cs),
(256,603,o),
(257,608,o),
(257,613,cs),
(257,633,o),
(237,674,o),
(232,680,c),
(137,593,o),
(50,537,o),
(50,537,c),
(61,518,l,{
name = hr00;
})
);
},
{
closed = 1;
nodes = (
(264,528,o),
(352,558,o),
(419,601,cs),
(423,603,o),
(424,608,o),
(424,613,cs),
(424,633,o),
(404,674,o),
(399,680,c),
(304,593,o),
(217,537,o),
(217,537,c),
(228,518,l)
);
}
);
width = 474;
}
);
unicode = 733;
},
{
glyphname = circumflex;
layers = (
{
layerId = master01;
shapes = (
{
closed = 1;
nodes = (
(264,509,l),
(290,526,l),
(246,589,o),
(213,642,o),
(190,685,c),
(145,685,l),
(122,642,o),
(89,589,o),
(45,526,c),
(71,509,l),
(168,611,l,{
name = hr00;
})
);
}
);
width = 335;
}
);
unicode = 710;
},
{
glyphname = caron;
layers = (
{
layerId = master01;
shapes = (
{
closed = 1;
nodes = (
(76,685,l),
(49,668,l),
(89,605,o),
(119,552,o),
(138,509,c),
(183,509,l),
(209,552,o),
(246,605,o),
(294,668,c),
(269,685,l),
(166,583,l,{
name = hr00;
})
);
}
);
width = 335;
}
);
unicode = 711;
},
{
glyphname = breve;
layers = (
{
layerId = master01;
shapes = (
{
closed = 1;
nodes = (
(128,577,o),
(99,613,o),
(77,669,c),
(43,661,l),
(75,564,o),
(106,510,o),
(166,510,cs),
(226,510,o),
(257,564,o),
(289,661,c),
(255,669,l),
(233,613,o),
(204,577,o),
(166,577,cs,{
name = hr00;
})
);
}
);
width = 335;
}
);
unicode = 728;
},
{
glyphname = ring;
layers = (
{
layerId = master01;
shapes = (
{
closed = 1;
nodes = (
(235,663,o),
(194,691,o),
(144,691,cs),
(93,691,o),
(50,660,o),
(50,604,cs),
(50,544,o),
(89,515,o),
(140,515,cs),
(196,515,o),
(235,544,o),
(235,606,cs,{
name = hr00;
})
);
},
{
closed = 1;
nodes = (
(96,626,o),
(103,647,o),
(116,653,c),
(122,656,o),
(133,658,o),
(143,658,cs),
(169,658,o),
(189,639,o),
(189,604,cs),
(189,565,o),
(169,548,o),
(143,548,cs),
(118,548,o),
(96,565,o),
(96,604,cs)
);
}
);
width = 285;
}
);
unicode = 730;
},
{
glyphname = tilde;
layers = (
{
layerId = master01;
shapes = (
{
closed = 1;
nodes = (
(329,632,o),
(309,621,o),
(287,621,cs),
(240,621,o),
(199,648,o),
(151,648,cs,{
name = hr01;
}),
(118,648,o),
(84,632,o),
(50,573,c),
(67,554,l),
(87,573,o),
(107,584,o),
(129,584,cs),
(176,584,o),
(217,557,o),
(265,557,cs,{
name = hr02;
}),
(298,557,o),
(332,573,o),
(366,632,c),
(349,651,l)
);
}
);
width = 416;
}
);
unicode = 732;
},
{
glyphname = macron;
layers = (
{
layerId = master01;
shapes = (
{
closed = 1;
nodes = (
(351,570,l),
(351,633,l),
(70,633,l),
(70,570,l,{
name = hr00;
})
);
}
);
width = 421;
}
);
unicode = 175;
},
{
glyphname = cedilla;
layers = (
{
layerId = master01;
shapes = (
{
closed = 1;
nodes = (
(213,-85,o),
(236,-114,o),
(236,-142,cs),
(236,-167,o),
(217,-191,o),
(184,-191,cs),
(165,-191,o),
(144,-184,o),
(129,-172,c),
(110,-202,l),
(128,-218,o),
(157,-233,o),
(196,-233,cs),
(259,-233,o),
(299,-186,o),
(299,-141,cs),
(299,-102,o),
(272,-64,o),
(209,-56,c),
(231,15,l),
(199,15,l),
(160,-83,l,{
name = hr00;
})
);
}
);
width = 410;
}
);
unicode = 184;
},
{
glyphname = ogonek;
layers = (
{
layerId = master01;
shapes = (
{
closed = 1;
nodes = (
(263,15,l),
(175,-23,o),
(135,-87,o),
(135,-141,cs),
(135,-191,o),
(171,-233,o),
(238,-233,cs),
(277,-233,o),
(306,-218,o),
(324,-202,c),
(321,-188,o),
(316,-180,o),
(307,-172,c),
(291,-183,o),
(271,-189,o),
(252,-189,cs),
(222,-189,o),
(195,-173,o),
(195,-134,cs),
(195,-86,o),
(233,-22,o),
(321,9,c),
(321,15,l,{
name = hr00;
})
);
}
);
width = 469;
}
);
unicode = 731;
},
{
glyphname = dieresis.case;
layers = (
{
layerId = master01;
shapes = (
{
closed = 1;
nodes = (
(100,900,o),
(71,894,o),
(71,894,c),
(71,894,o),
(64,867,o),
(64,841,cs),
(64,816,o),
(70,791,o),
(95,791,cs),
(113,791,o),
(141,799,o),
(141,799,c),
(141,799,o),
(147,825,o),
(147,850,cs),
(147,876,o),
(139,900,o),
(117,900,cs,{
name = hr00;
})
);
},
{
closed = 1;
nodes = (
(268,900,o),
(239,894,o),
(239,894,c),
(239,894,o),
(232,867,o),
(232,841,cs),
(232,816,o),
(238,791,o),
(263,791,cs),
(281,791,o),
(309,799,o),
(309,799,c),
(309,799,o),
(315,825,o),
(315,850,cs),
(315,876,o),
(307,900,o),
(285,900,cs)
);
}
);
width = 374;
}
);
},
{
glyphname = dotaccent.case;
layers = (
{
layerId = master01;
shapes = (
{
closed = 1;
nodes = (
(102,906,o),
(70,899,o),
(70,899,c),
(70,899,o),
(62,869,o),
(62,840,cs),
(62,813,o),
(69,785,o),
(97,785,cs),
(117,785,o),
(148,794,o),
(148,794,c),
(148,794,o),
(155,823,o),
(155,850,cs),
(155,879,o),
(146,906,o),
(121,906,cs,{
name = hr00;
})
);
}
);
width = 217;
}
);
},
{
glyphname = grave.case;
layers = (
{
layerId = master01;
shapes = (
{
closed = 1;
nodes = (
(267,781,o),
(170,847,o),
(75,924,c),
(70,918,o),
(50,877,o),
(50,857,cs),
(50,852,o),
(51,847,o),
(55,845,cs),
(122,802,o),
(220,772,o),
(256,762,c),
(267,781,l,{
name = hr00;
})
);
}
);
width = 317;
}
);
},
{
glyphname = acute.case;
layers = (
{
layerId = master01;
shapes = (
{
closed = 1;
nodes = (
(97,772,o),
(195,802,o),
(262,845,cs),
(266,847,o),
(267,852,o),
(267,857,cs),
(267,877,o),
(247,918,o),
(242,924,c),
(147,847,o),
(50,781,o),
(50,781,c),
(61,762,l,{
name = hr00;
})
);
}
);
width = 317;
}
);
},
{
glyphname = hungarumlaut.case;
layers = (
{
layerId = master01;
shapes = (
{
closed = 1;
nodes = (
(97,772,o),
(185,802,o),
(252,845,cs),
(256,847,o),
(257,852,o),
(257,857,cs),
(257,877,o),
(237,918,o),
(232,924,c),
(137,837,o),
(50,781,o),
(50,781,c),
(61,762,l,{
name = hr00;
})
);
},
{
closed = 1;
nodes = (
(264,772,o),
(352,802,o),
(419,845,cs),
(423,847,o),
(424,852,o),
(424,857,cs),
(424,877,o),
(404,918,o),
(399,924,c),
(304,837,o),
(217,781,o),
(217,781,c),
(228,762,l)
);
}
);
width = 474;
}
);
},
{
glyphname = circumflex.case;
layers = (
{
layerId = master01;
shapes = (
{
closed = 1;
nodes = (
(264,753,l),
(290,770,l),
(246,833,o),
(213,886,o),
(190,929,c),
(145,929,l),
(122,886,o),
(89,833,o),
(45,770,c),
(71,753,l),
(168,855,l,{
name = hr00;
})
);
}
);
width = 335;
}
);
},
{
glyphname = caron.case;
layers = (
{
layerId = master01;
shapes = (
{
closed = 1;
nodes = (
(76,929,l),
(49,912,l),
(89,849,o),
(119,796,o),
(138,753,c),
(183,753,l),
(209,796,o),
(246,849,o),
(294,912,c),
(269,929,l),
(166,827,l,{
name = hr00;
})
);
}
);
width = 335;
}
);
},
{
glyphname = breve.case;
layers = (
{
layerId = master01;
shapes = (
{
closed = 1;
nodes = (
(128,821,o),
(99,857,o),
(77,913,c),
(43,905,l),
(75,808,o),
(106,754,o),
(166,754,cs),
(226,754,o),
(257,808,o),
(289,905,c),
(255,913,l),
(233,857,o),
(204,821,o),
(166,821,cs,{
name = hr00;
})
);
}
);
width = 335;
}
);
},
{
glyphname = ring.case;
layers = (
{
layerId = master01;
shapes = (
{
closed = 1;
nodes = (
(235,907,o),
(194,935,o),
(144,935,cs),
(93,935,o),
(50,904,o),
(50,848,cs),
(50,788,o),
(89,759,o),
(140,759,cs),
(196,759,o),
(235,788,o),
(235,850,cs,{
name = hr00;
})
);
},
{
closed = 1;
nodes = (
(96,870,o),
(103,891,o),
(116,897,c),
(122,900,o),
(133,902,o),
(143,902,cs),
(169,902,o),
(189,883,o),
(189,848,cs),
(189,809,o),
(169,792,o),
(143,792,cs),
(118,792,o),
(96,809,o),
(96,848,cs)
);
}
);
width = 285;
}
);
},
{
glyphname = tilde.case;
layers = (
{
layerId = master01;
shapes = (
{
closed = 1;
nodes = (
(329,876,o),
(309,865,o),
(287,865,cs),
(240,865,o),
(199,892,o),
(151,892,cs,{
name = hr01;
}),
(118,892,o),
(84,876,o),
(50,817,c),
(67,798,l),
(87,817,o),
(107,828,o),
(129,828,cs),
(176,828,o),
(217,801,o),
(265,801,cs,{
name = hr02;
}),
(298,801,o),
(332,817,o),
(366,876,c),
(349,895,l)
);
}
);
width = 416;
}
);
},
{
glyphname = macron.case;
layers = (
{
layerId = master01;
shapes = (
{
closed = 1;
nodes = (
(351,814,l),
(351,877,l),
(70,877,l),
(70,814,l,{
name = hr00;
})
);
}
);
width = 421;
}
);
},
{
glyphname = caron.salt;
layers = (
{
layerId = master01;
shapes = (
{
closed = 1;
nodes = (
(114,534,o),
(161,593,o),
(161,660,cs),
(161,724,o),
(142,769,o),
(115,769,cs),
(97,769,o),
(74,766,o),
(56,762,c),
(51,738,o),
(48,716,o),
(48,697,cs),
(48,657,o),
(60,637,o),
(85,637,cs),
(91,637,o),
(94,637,o),
(101,638,c),
(101,633,ls),
(101,593,o),
(77,560,o),
(37,542,c),
(49,512,l,{
name = hr00;
})
);
}
);
width = 197;
}
);
},
{
glyphname = Acutesmall;
layers = (
{
layerId = master01;
shapes = (
{
closed = 1;
nodes = (
(97,558,o),
(195,588,o),
(262,631,cs),
(266,633,o),
(267,638,o),
(267,643,cs),
(267,663,o),
(247,704,o),
(242,710,c),
(147,633,o),
(50,567,o),
(50,567,c),
(61,548,l,{
name = hr00;
})
);
}
);
width = 317;
}
);
},
{
glyphname = Brevesmall;
layers = (
{
layerId = master01;
shapes = (
{
closed = 1;
nodes = (
(128,607,o),
(99,643,o),
(77,699,c),
(43,691,l),
(75,594,o),
(106,540,o),
(166,540,cs),
(226,540,o),
(257,594,o),
(289,691,c),
(255,699,l),
(233,643,o),
(204,607,o),
(166,607,cs,{
name = hr00;
})
);
}
);
width = 335;
}
);
},
{
glyphname = Caronsmall;
layers = (
{
layerId = master01;
shapes = (
{
closed = 1;
nodes = (
(76,715,l),
(49,698,l),
(109,604,o),
(138,539,q),
(183,539,l),
(222,604,o),
(294,698,q),
(269,715,l),
(166,613,l,{
name = hr00;
})
);
}
);
width = 335;
}
);
},
{
glyphname = Cedillasmall;
layers = (
{
layerId = master01;
shapes = (
{
closed = 1;
nodes = (
(213,-85,o),
(236,-114,o),
(236,-142,cs),
(236,-167,o),
(217,-191,o),
(184,-191,cs),
(165,-191,o),
(144,-184,o),
(129,-172,c),
(110,-202,l),
(128,-218,o),
(157,-233,o),
(196,-233,cs),
(259,-233,o),
(299,-186,o),
(299,-141,cs),
(299,-102,o),
(272,-64,o),
(209,-56,c),
(226,0,l),
(194,0,l),
(160,-83,l,{
name = hr00;
})
);
}
);
width = 410;
}
);
},
{
glyphname = Circumflexsmall;
layers = (
{
layerId = master01;
shapes = (
{
closed = 1;
nodes = (
(264,539,l),
(290,556,l),
(224,650,o),
(190,715,q),
(145,715,l),
(111,650,o),
(45,556,q),
(71,539,l),
(168,641,l,{
name = hr00;
})
);
}
);
width = 335;
}
);
},
{
glyphname = Dieresissmall;
layers = (
{
layerId = master01;
shapes = (
{
closed = 1;
nodes = (
(149,689,o),
(157,663,o),
(157,636,cs),
(157,611,o),
(152,586,o),
(151,583,c),
(151,583,o),
(119,574,o),
(102,574,cs),
(76,574,o),
(70,600,o),
(70,626,cs),
(70,653,o),
(76,679,o),
(77,682,c),
(77,682,o),
(110,689,o),
(126,689,c,{
name = hr00;
})
);
},
{
closed = 1;
nodes = (
(297,689,o),
(305,663,o),
(305,636,cs),
(305,611,o),
(300,586,o),
(299,583,c),
(299,583,o),
(267,574,o),
(250,574,cs),
(224,574,o),
(218,600,o),
(218,626,cs),
(218,653,o),
(224,679,o),
(225,682,c),
(225,682,o),
(258,689,o),
(274,689,c)
);
}
);
width = 374;
}
);
},
{
glyphname = Dotaccentsmall;
layers = (
{
layerId = master01;
shapes = (
{
closed = 1;
nodes = (
(102,692,o),
(70,685,o),
(70,685,c),
(70,685,o),
(62,655,o),
(62,626,cs),
(62,599,o),
(69,571,o),
(97,571,cs),
(117,571,o),
(148,580,o),
(148,580,c),
(148,580,o),
(155,609,o),
(155,636,cs),
(155,665,o),
(146,692,o),
(121,692,cs,{
name = hr00;
})
);
}
);
width = 217;
}
);
},
{
glyphname = Gravesmall;
layers = (
{
layerId = master01;
shapes = (
{
closed = 1;
nodes = (
(267,567,o),
(170,633,o),
(75,710,c),
(70,704,o),
(50,663,o),
(50,643,cs),
(50,638,o),
(51,633,o),
(55,631,cs),
(122,588,o),
(220,558,o),
(256,548,c),
(267,567,l,{
name = hr00;
})
);
}
);
width = 317;
}
);
},
{
glyphname = Hungarumlautsmall;
layers = (
{
layerId = master01;
shapes = (
{
closed = 1;
nodes = (
(97,558,o),
(195,588,o),
(262,631,cs),
(266,633,o),
(267,638,o),
(267,643,cs),
(267,663,o),
(247,704,o),
(242,710,c),
(147,633,o),
(50,567,o),
(50,567,c),
(61,548,l,{
name = hr00;
})
);
},
{
closed = 1;
nodes = (
(297,558,o),
(395,588,o),
(462,631,cs),
(466,633,o),
(467,638,o),
(467,643,cs),
(467,663,o),
(447,704,o),
(442,710,c),
(347,633,o),
(250,567,o),
(250,567,c),
(261,548,l)
);
}
);
width = 517;
}
);
},
{
glyphname = Macronsmall;
layers = (
{
layerId = master01;
shapes = (
{
closed = 1;
nodes = (
(351,600,l),
(351,663,l),
(70,663,l),
(70,600,l,{
name = hr00;
})
);
}
);
width = 421;
}
);
},
{
glyphname = Ogoneksmall;
layers = (
{
layerId = master01;
shapes = (
{
closed = 1;
nodes = (
(170,-34,o),
(135,-92,o),
(135,-141,cs),
(135,-191,o),
(171,-233,o),
(238,-233,cs),
(277,-233,o),
(306,-218,o),
(324,-202,c),
(321,-188,o),
(316,-180,o),
(307,-172,c),
(291,-183,o),
(271,-189,o),
(252,-189,cs),
(222,-189,o),
(195,-173,o),
(195,-134,cs),
(195,-87,o),
(233,-24,o),
(326,0,c),
(247,0,l,{
name = hr00;
})
);
}
);
width = 469;
}
);
},
{
glyphname = Ringsmall;
layers = (
{
layerId = master01;
shapes = (
{
closed = 1;
nodes = (
(235,693,o),
(194,721,o),
(144,721,cs),
(93,721,o),
(50,690,o),
(50,634,cs),
(50,574,o),
(89,545,o),
(140,545,cs),
(196,545,o),
(235,574,o),
(235,636,cs,{
name = hr00;
})
);
},
{
closed = 1;
nodes = (
(96,656,o),
(103,677,o),
(116,683,c),
(122,686,o),
(133,688,o),
(143,688,cs),
(169,688,o),
(189,669,o),
(189,634,cs),
(189,595,o),
(169,578,o),
(143,578,cs),
(118,578,o),
(96,595,o),
(96,634,cs)
);
}
);
width = 285;
}
);
},
{
glyphname = Tildesmall;
layers = (
{
layerId = master01;
shapes = (
{
closed = 1;
nodes = (
(329,662,o),
(309,651,o),
(287,651,cs),
(240,651,o),
(199,678,o),
(151,678,cs,{
name = hr01;
}),
(118,678,o),
(84,662,o),
(50,603,c),
(67,584,l),
(87,603,o),
(107,614,o),
(129,614,cs),
(176,614,o),
(217,587,o),
(265,587,cs,{
name = hr02;
}),
(298,587,o),
(332,603,o),
(366,662,c),
(349,681,l)
);
}
);
width = 416;
}
);
},
{
glyphname = ethbar;
layers = (
{
layerId = master01;
shapes = (
{
closed = 1;
nodes = (
(0,371,l),
(0,338,l),
(378,338,l),
(378,371,l,{
name = hr00;
})
);
}
);
width = 378;
}
);
},
{
glyphname = exclamdownsmall;
layers = (
{
layerId = master01;
shapes = (
{
closed = 1;
nodes = (
(172,139,l),
(153,328,l),
(115,328,l),
(85,-50,l),
(146,-50,l,{
name = hr00;
})
);
},
{
closed = 1;
nodes = (
(140,394,o),
(176,400,o),
(176,400,c),
(176,400,o),
(184,427,o),
(184,452,cs),
(184,477,o),
(177,501,o),
(147,501,cs),
(125,501,o),
(90,493,o),
(90,493,c),
(90,493,o),
(83,467,o),
(83,444,cs),
(83,417,o),
(92,394,o),
(119,394,cs)
);
}
);
width = 257;
}
);
},
{
glyphname = questiondownsmall;
layers = (
{
layerId = master01;
shapes = (
{
closed = 1;
nodes = (
(227,316,ls),
(227,246,o),
(53,178,o),
(53,52,cs),
(53,-21,o),
(142,-62,o),
(260,-62,cs),
(297,-62,o),
(336,-57,o),
(376,-47,c),
(350,86,l),
(342,86,o),
(308,86,o),
(308,72,cs),
(308,-8,l),
(294,-11,o),
(278,-12,o),
(261,-12,cs),
(194,-12,o),
(120,6,o),
(118,57,c),
(133,148,o),
(267,218,o),
(269,275,c),
(269,276,o),
(269,292,o),
(265,324,c),
(227,324,l,{
name = hr00;
})
);
},
{
closed = 1;
nodes = (
(252,390,o),
(288,396,o),
(288,396,c),
(288,396,o),
(296,423,o),
(296,448,cs),
(296,473,o),
(289,497,o),
(259,497,cs),
(237,497,o),
(202,489,o),
(202,489,c),
(202,489,o),
(195,463,o),
(195,440,cs),
(195,413,o),
(204,390,o),
(231,390,cs)
);
}
);
width = 430;
}
);
},
{
glyphname = dolar.alt;
layers = (
{
layerId = master01;
shapes = (
{
closed = 1;
nodes = (
(1232,-9,l),
(1339,-9,o),
(1420,40,o),
(1420,137,cs),
(1420,184,o),
(1389,235,o),
(1327,271,cs),
(1256,311,l),
(1272,519,l),
(1299,516,o),
(1318,508,o),
(1335,500,c),
(1335,420,ls),
(1335,409,o),
(1364,409,o),
(1371,409,c),
(1392,535,l),
(1354,548,o),
(1315,559,o),
(1276,562,c),
(1286,698,l),
(1246,698,l),
(1236,562,l),
(1122,556,o),
(1071,487,o),
(1071,415,cs),
(1071,357,o),
(1097,317,o),
(1152,286,cs),
(1212,251,l),
(1195,35,l),
(1167,40,o),
(1138,51,o),
(1117,65,c),
(1117,153,ls),
(1117,162,o),
(1087,162,o),
(1081,162,cs),
(1080,162,o),
(1066,63,o),
(1062,28,c),
(1108,8,o),
(1151,-2,o),
(1192,-7,c),
(1182,-139,l),
(1222,-139,l)
);
},
{
closed = 1;
nodes = (
(223,553,o),
(205,553,o),
(134,550,c),
(62,553,o),
(54,553,o),
(54,553,c),
(43,553,o),
(43,533,o),
(43,526,c),
(96,510,l),
(96,172,ls),
(96,43,o),
(175,-9,o),
(300,-9,cs),
(420,-9,o),
(491,64,o),
(491,172,cs),
(491,510,l),
(541,527,l),
(541,533,o),
(541,553,o),
(530,553,cs),
(530,553,o),
(522,553,o),
(468,550,c),
(382,553,ls),
(370,553,o),
(370,532,o),
(370,527,c),
(442,510,l),
(442,172,ls),
(442,103,o),
(398,37,o),
(302,37,cs),
(206,37,o),
(168,94,o),
(168,172,cs),
(168,510,l),
(236,527,l),
(236,532,o),
(236,553,o),
(223,553,c,{
name = hr01;
})
);
},
{
closed = 1;
nodes = (
(967,184,o),
(936,235,o),
(874,271,cs),
(738,349,ls),
(702,370,o),
(680,390,o),
(680,438,cs),
(680,493,o),
(740,520,o),
(795,520,cs,{
name = hr02;
}),
(834,520,o),
(861,511,o),
(882,500,c),
(882,420,ls),
(882,409,o),
(911,409,o),
(918,409,c),
(939,535,l),
(894,551,o),
(847,563,o),
(800,563,cs),
(674,563,o),
(618,491,o),
(618,415,cs),
(618,357,o),
(644,317,o),
(699,286,cs),
(839,206,ls),
(887,179,o),
(901,146,o),
(901,121,cs),
(901,73,o),
(864,32,o),
(783,32,cs),
(744,32,o),
(696,44,o),
(664,65,c),
(664,153,ls),
(664,162,o),
(634,162,o),
(628,162,cs),
(627,162,o),
(613,63,o),
(609,28,c),
(670,2,o),
(726,-9,o),
(779,-9,cs),
(886,-9,o),
(967,40,o),
(967,137,cs)
);
},
{
closed = 1;
nodes = (
(1340,179,o),
(1354,146,o),
(1354,121,cs),
(1354,73,o),
(1317,32,o),
(1236,32,c),
(1235,32,l),
(1250,230,l),
(1292,206,ls)
);
},
{
closed = 1;
nodes = (
(1133,488,o),
(1182,514,o),
(1232,519,c),
(1218,333,l),
(1191,349,ls),
(1154,370,o),
(1133,390,o),
(1133,438,cs)
);
}
